<?xml version="1.0" encoding="utf-8"?>
<!-- Generator: Adobe Illustrator 24.1.2, SVG Export Plug-In . SVG Version: 6.00 Build 0)  -->
<svg version="1.1" id="Layer_1" xmlns="http://www.w3.org/2000/svg" xmlns:xlink="http://www.w3.org/1999/xlink" x="0px" y="0px"
	 width="100px" height="100px" viewBox="0 0 100 100" style="enable-background:new 0 0 100 100;" xml:space="preserve">
<style type="text/css">
	.st0{fill:#F22935;}
	.st1{fill:#FE671E;}
	.st2{fill:#010101;}
</style>
<g>
	<g>
		<path class="st0" d="M48.6,50.8c-0.7,1.7-1.3,3.3-1.9,4.9c-2,5.2-4.1,10.4-6.1,15.6c-0.1,0.3-0.2,0.5-0.6,0.5c-11.5,0-23,0-34.5,0
			c-0.1,0-0.2,0-0.4,0c2.8-7,5.5-14,8.3-21C25.1,50.8,36.8,50.8,48.6,50.8z"/>
		<path class="st1" d="M44.8,28.1c-0.8,2-1.5,3.9-2.3,5.7c-2,5-3.9,9.9-5.9,14.9c-0.1,0.3-0.3,0.4-0.6,0.4c-10.2,0-20.3,0-30.5,0
			c-0.1,0-0.3,0-0.5,0c0.1-0.2,0.1-0.3,0.1-0.4c2.7-6.7,5.3-13.4,7.9-20.2c0.1-0.3,0.2-0.4,0.6-0.4c10.2,0,20.4,0,30.6,0
			C44.5,28.1,44.6,28.1,44.8,28.1z"/>
		<path class="st2" d="M57.4,57.8c-1,2.8-1.9,5.4-2.9,8.1c-0.7,1.9-1.3,3.7-2,5.6c-0.1,0.2-0.1,0.4-0.4,0.4c-3.3,0-6.6,0-10,0
			c2.8-7,5.6-14,8.4-21.1c4.5,0,9.1,0,13.6,0c1,3.7,2,7.3,3,11.1c1.4-3.8,2.7-7.4,4-11.1c2.9,0,5.8,0,8.8,0
			c-0.6,1.4-1.1,2.9-1.7,4.3C76,60.5,73.9,66,71.7,71.5c-0.1,0.2-0.1,0.4-0.4,0.4c-3.3,0-6.6,0-9.9,0C60,67.2,58.7,62.5,57.4,57.8z"
			/>
		<path class="st2" d="M56.6,28.1c-1.3,3.4-2.5,6.7-3.8,10c0,0,0.1,0,0.1,0.1c0.4-0.5,0.8-0.9,1.2-1.4c2.3-2.8,4.6-5.6,6.9-8.4
			c0.1-0.2,0.4-0.3,0.5-0.3c2.8,0,5.6,0,8.5,0c-0.1,0.1-0.1,0.2-0.1,0.3c-2,2.4-4.1,4.9-6.1,7.3c-0.9,1-1.7,2.1-2.6,3.1
			c-0.2,0.2-0.2,0.5-0.2,0.8c0.9,3.1,1.7,6.3,2.6,9.5c0,0,0,0.1,0,0.2c-0.2,0-0.3,0-0.5,0c-2.6,0-5.2,0-7.9,0
			c-0.4,0-0.6-0.1-0.7-0.5c-0.8-2.8-1.6-5.6-2.5-8.5c-0.4,1-0.8,1.9-1.1,2.9c-0.8,1.9-1.5,3.9-2.3,5.8c-0.1,0.2-0.3,0.4-0.4,0.4
			c-3.3,0-6.5,0-9.8,0c0.3-0.8,0.6-1.7,0.9-2.5c2.4-6.1,4.8-12.2,7.2-18.3c0.1-0.1,0.3-0.3,0.4-0.3C50.2,28.1,53.3,28.1,56.6,28.1z"
			/>
		<path class="st2" d="M80.2,41.4c-0.6,1.7-2.8,1.7-3.9,0.8c-0.8-0.7-0.7-2.2,0.2-2.9c0.7-0.5,1.4-0.7,2.2-0.8
			c3.1-0.4,5.7,0.6,7.9,2.7c0.6,0.5,1.2,1,1.8,1.5c0.2,0.2,0.5,0.3,0.7,0.4c0.4,0.2,0.8,0.2,1.1-0.2c0.2-0.3,0.3-0.7,0.2-1
			c-0.1-0.4-0.5-0.7-0.9-0.7c-0.5,0-1,0-1.5,0c0.2-0.2,0.4-0.5,0.6-0.8c1.4-1.3,3.9-0.8,5.1,0.6c1.7,2.1,1.2,6.7-2,7.8
			c-2.1,0.8-4.1,0.5-5.9-0.9c-0.9-0.6-1.5-1.5-2.1-2.4c-0.1-0.2-0.2-0.3-0.3-0.5c-0.5,0.5-0.9,1-1.4,1.4c-1.7,1.4-3.7,2.2-5.9,2.5
			c-2.1,0.3-4.1,0.1-6.2-0.2c-1.7-0.3-3.3-0.9-4.4-2.2c-1.2-1.4-1.5-3-1.3-4.8c0.4-3.1,2.4-4.9,5.2-6c0.9-0.4,0.9-0.3,0.5-1.2
			c-0.7-1.6-0.1-3.8,1.4-4.9c1.1-0.9,2.4-1.3,3.7-1.5c1.9-0.2,3.9-0.2,5.8,0.4c1.4,0.4,2.6,1.1,3.6,2.3c1,1.3,1.1,3,0.2,4.2
			c-0.6,0.8-1.4,1.1-2.3,1c-0.4,0-0.8-0.1-1.2-0.2c-0.7-0.2-1.2-0.9-1.1-1.6c0-0.6,0.6-1.2,1.3-1.4c0.2,0,0.3-0.1,0.6-0.1
			c-0.1-0.1-0.2-0.3-0.3-0.3c-1.2-0.6-2.4-0.8-3.7-0.1c-1.5,0.8-1.6,2.8-0.3,3.9c0.4,0.3,1,0.5,1.5,0.8c-0.6,0.6-1.4,0.8-2.2,1
			c-1,0.3-1.9,0.6-2.7,1.2c-1.8,1.3-1.4,3.7,0.6,4.6c1.6,0.8,3.3,0.7,4.9-0.1c0.8-0.4,1.2-1,1.1-1.7c0-0.2-0.2-0.5-0.3-0.7
			C80.4,41.4,80.3,41.4,80.2,41.4z"/>
	</g>
	<g>
		<path d="M77.1,70.2c0,0.1,0,0.2-0.1,0.3c-0.1,0.5-0.2,0.9-0.3,1.4c0,0,0,0-0.1,0c-0.1,0-0.1,0-0.2,0c0.1-0.5,0.2-1,0.3-1.5
			c0,0,0,0,0,0c-0.3,0.5-0.5,1-0.8,1.5c0,0,0,0,0,0c-0.1,0-0.1,0-0.2,0c-0.1-0.5-0.1-1-0.2-1.6c0,0.1,0,0.2-0.1,0.3
			c-0.1,0.4-0.2,0.8-0.3,1.2c0,0,0,0,0,0c-0.1,0-0.1,0-0.2,0c0-0.1,0-0.1,0-0.2c0.1-0.5,0.2-1,0.3-1.5c0,0,0-0.1,0.1-0.1
			c0.1,0,0.2,0,0.3,0c0.1,0.5,0.1,0.9,0.2,1.4c0,0,0,0,0,0c0.3-0.5,0.5-0.9,0.8-1.4c0,0,0,0,0,0C76.9,70.2,77,70.2,77.1,70.2
			C77.1,70.2,77.1,70.2,77.1,70.2z"/>
		<path d="M74.4,70.3c-0.2,0-0.3,0-0.5,0c0-0.1,0-0.1,0-0.2c0.4,0,0.8,0,1.3,0c0,0.1,0,0.1,0,0.2c0,0,0,0,0,0c-0.1,0-0.3,0-0.4,0
			c0,0,0,0-0.1,0c-0.1,0.5-0.2,1-0.3,1.4c0,0,0,0,0,0c-0.1,0-0.1,0-0.2,0C74.2,71.4,74.3,70.8,74.4,70.3z"/>
	</g>
</g>
</svg>
