<?xml version="1.0" encoding="utf-8"?>
<!-- Generator: Adobe Illustrator 24.1.2, SVG Export Plug-In . SVG Version: 6.00 Build 0)  -->
<svg version="1.1" id="Layer_1" xmlns="http://www.w3.org/2000/svg" xmlns:xlink="http://www.w3.org/1999/xlink" x="0px" y="0px"
	 width="100px" height="100px" viewBox="0 0 100 100" style="enable-background:new 0 0 100 100;" xml:space="preserve">
<style type="text/css">
	.st0{fill:#EC252F;}
</style>
<g>
	<path class="st0" d="M94,61.9c-29.3,0-58.6,0-87.9,0C6,54,6,46,6,38.1c29.3,0,58.6,0,87.9,0C94,46,94,54,94,61.9z M21.8,48.5
		c0-0.1,0-0.1,0-0.1c-0.3-2-0.6-4-0.9-6.1c0-0.2-0.1-0.2-0.2-0.2c-1.9,0-3.8,0-5.7,0c-0.1,0-0.2,0-0.2,0.2c-1.5,5.1-3,10.3-4.6,15.4
		c0,0.1,0,0.1,0,0.2c0.1,0,0.1,0,0.2,0c1.8,0,3.5,0,5.3,0c0.2,0,0.2,0,0.3-0.2c0.5-1.8,0.9-3.7,1.4-5.5c0.1-0.4,0.2-0.8,0.3-1.2
		c0,0,0,0,0,0c0.4,2.3,0.7,4.6,1.1,6.9c0.1,0,0.1,0,0.2,0c1.1,0,2.2,0,3.3,0c0.1,0,0.2,0,0.3-0.2c0.9-2.2,1.9-4.3,2.9-6.5
		c0,0,0-0.1,0.1-0.1c0,0,0,0,0,0c-0.1,2.3-0.2,4.5-0.3,6.8c1.9,0,3.7,0,5.6,0c0-5.3,0-10.5,0-15.7c0,0-0.1,0-0.1,0c-2,0-4,0-5.9,0
		c-0.1,0-0.2,0.1-0.2,0.2c-0.5,1.3-1.1,2.5-1.6,3.8C22.5,46.9,22.1,47.7,21.8,48.5z M49.9,49.9c0-0.4,0-0.7-0.1-1.1
		c-0.1-0.4-0.2-0.9-0.4-1.3c-1.1-1.3-2.1-2.7-3.2-4c-0.4-0.5-0.8-0.8-1.3-1c-1.2-0.5-2.5-0.7-3.8-0.7c-1.9-0.1-3.6,0.4-5.1,1.4
		c-2.9,1.9-4.2,4.6-3.8,8c0.3,2.4,1.6,4.3,3.7,5.6c2.3,1.4,4.8,1.8,7.4,1.2C46.9,57.3,49.9,54,49.9,49.9z M63.7,42.2
		c0,0,0,0.1,0,0.1c-0.1,0.5-0.1,1-0.2,1.5c-0.1,1.2-0.3,2.3-0.4,3.5c-0.1,1.1-0.3,2.2-0.4,3.3c-0.1,0.7-0.2,1.5-0.2,2.3
		c0,1.5,0.6,2.7,1.8,3.7c0.8,0.7,1.7,1.1,2.7,1.4c0.9,0.3,1.8,0.3,2.8,0.4c1.2,0,2.5-0.1,3.6-0.5c2.2-0.8,3.6-2.4,4.1-4.7
		c0.1-0.6,0.2-1.3,0.2-2c0.2-1.4,0.3-2.9,0.5-4.3c0.1-1.3,0.3-2.5,0.4-3.8c0-0.3,0.1-0.6,0.1-0.9c-1.9,0-3.9,0-5.8,0
		c0,0.1,0,0.1,0,0.2c-0.2,1.5-0.4,3-0.6,4.6c-0.2,1.6-0.4,3.2-0.7,4.9c-0.1,0.5-0.3,1-0.7,1.4c-0.8,0.7-2,0.3-2.3-0.7
		c-0.1-0.2-0.1-0.4-0.1-0.6c0-0.5,0.1-1.1,0.2-1.6c0.1-1.1,0.3-2.3,0.4-3.4c0.1-1.2,0.3-2.3,0.4-3.5c0-0.4,0.1-0.8,0.1-1.2
		C67.7,42.2,65.7,42.2,63.7,42.2z M62.4,42.2c-5.1,0-10.1,0-15.2,0c0,0,0,0.1,0,0.1c1.2,1.6,2.5,3.2,3.7,4.8c0,0.1,0.1,0.1,0.2,0.1
		c0.7,0,1.3,0,2-0.1c0,0,0.1,0,0.1,0c-0.5,3.6-0.9,7.2-1.4,10.8c2,0,4,0,6.1,0c0.4-3.6,0.9-7.2,1.3-10.8c0.8,0,1.7,0.1,2.5,0.1
		C62.1,45.5,62.3,43.8,62.4,42.2z M85,52.9c0.5-3.6,0.9-7.2,1.3-10.8c-2,0-4,0-6,0c-0.7,5.2-1.4,10.5-2.1,15.7c0.1,0,0.1,0,0.1,0
		c3.3,0,6.6,0,9.9,0c0.1,0,0.2,0,0.2-0.1c0.3-1.2,0.7-2.4,1-3.6c0.1-0.4,0.2-0.8,0.3-1.2C88.2,52.9,86.6,52.9,85,52.9z"/>
	<path class="st0" d="M40.8,53.3c-1.5,0-2.6-1.1-2.8-2.5c-0.2-1.4,0.3-2.5,1.5-3.3c1.2-0.8,2.9-0.5,3.7,0.6c0.5,0.7,0.7,1.6,0.6,2.4
		c-0.1,1.2-0.8,2-1.8,2.5C41.7,53.2,41.3,53.3,40.8,53.3z"/>
</g>
</svg>
