<?xml version="1.0" encoding="utf-8"?>
<!-- Generator: Adobe Illustrator 24.1.2, SVG Export Plug-In . SVG Version: 6.00 Build 0)  -->
<svg version="1.1" id="Layer_1" xmlns="http://www.w3.org/2000/svg" xmlns:xlink="http://www.w3.org/1999/xlink" x="0px" y="0px"
	 width="16px" height="16px" viewBox="0 0 16 16" style="enable-background:new 0 0 16 16;" xml:space="preserve">
<g>
	<path d="M6.4,10.5c0,0.1-0.1,0.2-0.1,0.3c0,0,0,0.1,0,0.2C6.2,11,6.2,11,6.1,11C6,11,6,11,6,11c-1.5,0-3,0-4.6,0
		c-0.1,0-0.2,0-0.2-0.2c0,0,0,0,0-0.1c0-0.1,0.1-0.3,0.1-0.4c0-0.2,0.1-0.4,0.2-0.5c0-0.2,0.1-0.3,0.1-0.5c0-0.2,0.1-0.3,0.1-0.5
		c0-0.1,0.1-0.2,0.1-0.3C1.9,8.4,2,8.3,2,8.1c0-0.1,0.1-0.2,0.1-0.3c0.1-0.2,0.1-0.5,0.2-0.7c0-0.2,0.1-0.3,0.1-0.5
		c0-0.2,0.1-0.4,0.2-0.5c0-0.1,0.1-0.3,0.1-0.4c0-0.2,0.1-0.3,0.2-0.5C3,5,3,5,3.2,5c0,0,0,0,0.1,0c1.4,0,2.9,0,4.3,0
		c0,0,0.1,0,0.1,0c0.1,0,0.2,0.1,0.2,0.2c0,0.1,0,0.2-0.1,0.3c0,0,0,0,0,0.1c0,0,0.1,0,0.1,0c0.5,0,1,0,1.5,0C9.7,5.6,9.9,5.7,10,6
		c0.1,0.2,0,0.3,0,0.5c-0.1,0.4-0.2,0.7-0.3,1c0,0.1-0.1,0.3-0.2,0.4C9.4,7.9,9.3,7.9,9.2,8c0,0,0,0,0,0c0.2,0,0.2,0.2,0.2,0.3
		c0,0.1,0,0.2-0.1,0.3C9.2,9,9.1,9.3,9,9.6C9,9.8,8.9,10,8.7,10.2c-0.1,0.1-0.3,0.2-0.4,0.2c0,0,0,0-0.1,0c-0.6,0-1.1,0-1.7,0
		C6.5,10.5,6.4,10.5,6.4,10.5z M3.1,5.1C3,5.1,3,5.2,2.9,5.3c-0.5,1.7-1,3.3-1.5,5c0,0.2-0.1,0.3-0.2,0.5c0,0.1,0,0.2,0.2,0.2
		c0.7,0,1.4,0,2.1,0c0,0,0,0,0.1,0c0,0,0,0,0,0c0.8,0,1.6,0,2.4,0c0.1,0,0.2,0,0.2-0.1c0-0.1,0.1-0.2,0.1-0.3c0,0,0,0,0-0.1
		c-0.6,0-1.3,0-1.9,0c0.5-1.6,0.9-3.2,1.4-4.8c0.6,0,1.3,0,1.9,0c0-0.1,0.1-0.2,0.1-0.4c0-0.1,0-0.2-0.2-0.2c0,0-0.1,0-0.1,0
		c-0.7,0-1.5,0-2.2,0c0,0,0,0,0,0c0,0,0,0-0.1,0C4.6,5.1,3.9,5.1,3.1,5.1C3.2,5.1,3.1,5.1,3.1,5.1z M7.7,9.2C7.8,9,7.9,8.7,8,8.5
		c-0.3,0-0.7,0-1,0C6.9,8.7,6.8,9,6.7,9.2C7.1,9.2,7.4,9.2,7.7,9.2z M8.4,6.8c-0.3,0-0.7,0-1,0C7.4,7.1,7.3,7.3,7.2,7.6
		c0,0,0,0,0.1,0c0.3,0,0.6,0,0.8,0c0,0,0.1,0,0.1-0.1C8.3,7.3,8.3,7.1,8.4,6.8C8.4,6.9,8.4,6.9,8.4,6.8z M6.9,6.8
		C6.8,7.1,6.7,7.3,6.6,7.6c0.2,0,0.4,0,0.6,0c0.1-0.3,0.1-0.5,0.2-0.7C7.2,6.8,7,6.8,6.9,6.8z M6.7,9.2C6.8,9,6.8,8.7,6.9,8.5
		c-0.2,0-0.4,0-0.5,0C6.3,8.7,6.2,9.2,6.2,9.2C6.4,9.2,6.5,9.2,6.7,9.2z"/>
	<path d="M11.8,9.2c0.6,0,1.3,0,1.9,0c-0.1,0.4-0.2,0.8-0.4,1.2c-1.5,0-2.9,0-4.4,0c0-0.1,0-0.1,0-0.2c0.1-0.3,0.2-0.6,0.3-0.9
		c0-0.1,0-0.1,0.1-0.2C9.7,9,10,8.8,10.2,8.6C10.6,8.3,11,8,11.4,7.6C11.7,7.4,12,7.2,12.3,7c0.1,0,0.1-0.1,0.2-0.1
		c-0.8,0-1.6,0-2.4,0c0.1-0.4,0.2-0.8,0.4-1.2c1.4,0,2.9,0,4.4,0c0,0.1,0,0.1-0.1,0.2c-0.1,0.3-0.2,0.6-0.3,0.9c0,0,0,0.1-0.1,0.1
		c0,0,0,0,0,0c-0.2,0.1-0.3,0.3-0.5,0.4c-0.1,0.1-0.2,0.2-0.4,0.3c-0.2,0.2-0.4,0.4-0.6,0.5c-0.1,0.1-0.2,0.2-0.4,0.3
		c-0.2,0.2-0.4,0.4-0.6,0.5C11.9,9.1,11.9,9.2,11.8,9.2C11.8,9.2,11.8,9.2,11.8,9.2z"/>
	<path d="M3.6,11C3.6,11,3.6,11,3.6,11c-0.8,0-1.5,0-2.2,0c-0.1,0-0.2-0.1-0.2-0.2c0-0.2,0.1-0.3,0.2-0.5c0.5-1.7,1-3.3,1.5-5
		C3,5.2,3,5.1,3.1,5.1c0,0,0,0,0,0c0.7,0,1.4,0,2.2,0c0,0,0,0,0.1,0c0,0,0,0,0,0c0,0.2-0.1,0.4-0.2,0.5C5,6.4,4.8,7.2,4.5,8
		C4.3,8.9,4,9.7,3.7,10.6C3.7,10.7,3.7,10.9,3.6,11z"/>
	<path d="M3.6,11c0-0.1,0.1-0.2,0.1-0.4C4,9.7,4.3,8.9,4.5,8C4.7,7.2,5,6.4,5.2,5.6c0-0.2,0.1-0.4,0.2-0.5c0.7,0,1.5,0,2.2,0
		c0,0,0.1,0,0.1,0c0.1,0,0.2,0.1,0.2,0.2c0,0.1-0.1,0.2-0.1,0.4c-0.6,0-1.3,0-1.9,0c-0.5,1.6-0.9,3.2-1.4,4.8c0.6,0,1.3,0,1.9,0
		c0,0,0,0,0,0.1c0,0.1-0.1,0.2-0.1,0.3C6.2,11,6.1,11,6,11C5.2,11,4.4,11,3.6,11C3.7,11,3.6,11,3.6,11z"/>
	<path d="M6.9,6.8c0.2,0,0.4,0,0.5,0C7.3,7.1,7.2,7.3,7.2,7.6c-0.2,0-0.4,0-0.6,0C6.7,7.3,6.8,7.1,6.9,6.8z"/>
	<path d="M6.7,9.2c-0.2,0-0.4,0-0.5,0c0-0.1,0.1-0.6,0.2-0.8c0.2,0,0.3,0,0.5,0C6.8,8.7,6.8,9,6.7,9.2z"/>
	<path d="M5.4,5.1C5.4,5.1,5.3,5.1,5.4,5.1c-0.8,0-1.5,0-2.2,0c0,0,0,0,0,0c0,0,0,0,0.1,0C3.9,5,4.6,5,5.4,5.1
		C5.3,5.1,5.3,5.1,5.4,5.1z"/>
</g>
</svg>
