<?xml version="1.0" encoding="utf-8"?>
<!-- Generator: Adobe Illustrator 23.0.0, SVG Export Plug-In . SVG Version: 6.00 Build 0)  -->
<svg version="1.1" id="Capa_1" xmlns="http://www.w3.org/2000/svg" xmlns:xlink="http://www.w3.org/1999/xlink" x="0px" y="0px"
	 viewBox="0 0 255.5 255.5" style="enable-background:new 0 0 255.5 255.5;" xml:space="preserve">
<style type="text/css">
	.st0{fill:#FFFFFF;}
	.st1{fill:#C62944;}
</style>
<g>
	<path class="st0" d="M132.9,146.7c0.1-0.6,0.2-1,0.3-1.4c0.3-1.5,0.7-3.1,1-4.6c0-0.2,0.2-0.5-0.1-0.8c-0.8,0-1.7,0-2.7,0
		c-1,0-1.9,0-2.9,0c-0.9,0-1.8-0.1-2.8,0.1c-1.8,8.7-3.7,17.3-5.5,26c0,0.2,0,0.3,0,0.5c1,0.1,1.9,0.1,2.8,0.1c1,0,1.9,0,2.9,0
		c0.9,0,1.8,0.1,2.7-0.1c1-4.4,1.8-8.8,2.8-13.2c0.4,0,0.7-0.1,1-0.1c3.4,0,6.7,0,10.1,0c1.6,0,1.7,0.2,1.4,1.8
		c-0.7,3.4-1.4,6.8-2.1,10.2c-0.1,0.4-0.2,0.8-0.1,1.3c2.8,0,5.5,0,8.3,0c0.1-0.3,0.2-0.6,0.3-0.9c0.6-2.9,1.2-5.9,1.8-8.8
		c0.2-1.1,0.5-2.1,0.7-3.2c0.3-1.7-0.2-3.3-1.9-3.8c-0.2-0.1-0.3-0.2-0.5-0.4c0.3-0.2,0.5-0.3,0.7-0.4c1.5-0.7,2.4-1.9,2.9-3.5
		c0.1-0.4,0.2-0.8,0.3-1.1c0.5-2.4,1-4.9,1.5-7.3c0.2-0.7,0.3-1.5,0.4-2.2c0.2-2.6-1-4.2-3.2-4.6c-0.7-0.1-1.4-0.2-2.1-0.2
		c-7.3,0-14.6,0-21.9,0c-0.4,0-0.8,0-1.2,0c-0.6,2.3-1,4.5-1.5,6.8c0,0.2,0,0.3,0,0.5c0.5,0.2,1,0.2,1.5,0.2c5.6,0,11.3,0,16.9,0
		c0.5,0,1,0,1.6,0.1c0.5,0.1,0.7,0.3,0.7,0.8c0,0.2,0,0.4,0,0.5c-0.5,2.1-0.9,4.2-1.4,6.3c0,0.1-0.1,0.2-0.1,0.4
		c-0.2,0.7-0.6,1-1.3,1c-0.3,0-0.7,0-1,0c-3,0-5.9,0-8.9,0C133.8,146.7,133.4,146.7,132.9,146.7z M168.5,97.2c0.7,0,1.2,0,1.6,0
		c5.7,0,11.3,0,17,0c0.5,0,1,0,1.4,0.1c0.4,0.1,0.6,0.3,0.6,0.7c0,0.4,0,0.8-0.1,1.2c-0.4,1.7-0.7,3.4-1.1,5.1
		c-0.4,1.9-0.6,2.1-2.6,2.1c-3,0-6,0-9,0c-0.3,0-0.7,0-1.1-0.1c0-0.4,0-0.7,0.1-0.9c0.3-1.7,0.7-3.3,1.1-5c0.1-0.3,0-0.6,0.1-1
		c-1,0-1.9,0-2.8,0c-1,0-1.9,0-2.9,0c-0.9,0-1.8-0.1-2.7,0.1c-0.1,0.4-0.2,0.8-0.3,1.2c-1.8,8.4-3.5,16.7-5.3,25.1c0,0,0,0.1,0,0.1
		c0,0,0,0.1,0.1,0.2c0.1,0,0.3,0.1,0.5,0.1c2.5,0,5,0,7.5,0c0.1,0,0.2-0.1,0.4-0.2c0.1-0.4,0.2-0.7,0.3-1.1
		c0.7-3.5,1.4-6.9,2.2-10.4c0.1-0.5,0.2-1.1,0.5-1.6c0.3,0,0.5-0.1,0.8-0.1c3.4,0,6.8,0,10.2,0c0.3,0,0.6,0,0.9,0.1
		c0.5,0.1,0.7,0.4,0.6,0.8c-0.1,0.4-0.1,0.9-0.2,1.3c-0.7,3.4-1.4,6.7-2.1,10.1c-0.1,0.3-0.1,0.6-0.1,0.9c0.2,0.1,0.4,0.1,0.6,0.1
		c2.4,0,4.9,0,7.3,0c0.2,0,0.4-0.1,0.6-0.2c0.9-4.2,1.8-8.4,2.6-12.6c0.1-0.5,0.1-1.1,0-1.7c-0.1-0.9-0.6-1.6-1.4-2.1
		c-0.3-0.2-0.6-0.3-1.1-0.5c0.3-0.2,0.6-0.4,0.8-0.5c1.5-0.7,2.4-1.9,2.8-3.4c0.1-0.4,0.3-0.8,0.4-1.3c0.5-2.5,1.1-5,1.6-7.5
		c0.2-1,0.4-2,0.3-3c-0.2-1.6-0.9-2.8-2.6-3.2c-0.9-0.2-1.9-0.3-2.8-0.4c-1.2-0.1-2.4,0-3.5,0c-6,0-12,0-18.1,0
		c-0.5,0-1-0.1-1.5,0.2C169.5,92.3,169,94.6,168.5,97.2z M182.5,166.6c0.3,0,0.5,0,0.8,0c7.5,0,15,0,22.5,0c0.7,0,1.5-0.1,2.2-0.3
		c1.7-0.3,3-1.3,3.9-2.8c0.6-1,1-2.1,1.2-3.3c0.7-3.2,1.4-6.5,2-9.7c0.2-0.8,0.2-1.7,0.1-2.5c-0.1-1.5-1-2.5-2.5-2.8
		c-0.8-0.2-1.6-0.2-2.3-0.2c-4.4,0-8.7,0-13.1,0c-0.4,0-0.8,0-1.2,0c-0.3,0-0.6-0.3-0.5-0.6c0-0.2,0-0.3,0.1-0.5
		c0.3-1.5,0.7-3.1,1-4.6c0.1-0.3,0.1-0.5,0.2-0.7c0.2-0.6,0.6-0.8,1.2-0.8c0.4,0,0.8,0,1.2,0c5.6,0,11.2,0,16.8,0
		c0.5,0,1,0.1,1.4-0.1c0.1-0.1,0.1-0.2,0.1-0.2c0.4-2.1,0.9-4.2,1.3-6.3c0-0.2,0-0.4,0-0.7c-0.4,0-0.8,0-1.1,0c-7.2,0-14.3,0-21.5,0
		c-0.4,0-0.8,0-1.2,0c-2.7,0.2-4.7,1.5-5.7,4.1c-0.3,0.9-0.6,1.7-0.8,2.6c-0.6,2.8-1.2,5.6-1.8,8.4c-0.1,0.6-0.2,1.2-0.3,1.8
		c-0.1,2.1,0.9,3.7,3.2,4c0.6,0.1,1.1,0.1,1.7,0.1c4.2,0,8.5,0,12.7,0c0.5,0,1,0,1.4,0.1c0.4,0,0.6,0.3,0.6,0.7c0,0.2,0,0.3-0.1,0.5
		c-0.4,1.7-0.7,3.4-1.1,5.1c0,0.1,0,0.2-0.1,0.3c-0.2,0.6-0.6,1-1.3,1.1c-0.4,0-0.9,0-1.3,0c-5.6,0-11.3,0-16.9,0
		c-0.5,0-0.9,0-1.4,0C183.7,160.2,182.6,165.1,182.5,166.6z M63.5,126c0.6,0,1,0.1,1.5,0.1c7.1,0,14.2,0,21.3,0c0.7,0,1.4,0,2.1-0.1
		c2.2-0.3,3.8-1.4,4.8-3.4c0.5-1,0.8-2,1-3.1c0.7-3.2,1.4-6.4,2-9.6c0.1-0.6,0.2-1.2,0.2-1.8c0-2.1-1.2-3.3-3.3-3.6
		c-0.6-0.1-1.2-0.1-1.8-0.1c-4.2,0-8.4,0-12.6,0c-0.4,0-0.8,0-1.2,0c-0.7-0.1-1-0.3-0.8-1c0.3-1.7,0.7-3.4,1.1-5.1
		c0.2-1,0.6-1.2,1.5-1.3c0.3,0,0.6,0,0.9,0c1.3,0,2.5,0,3.8,0c4.4,0,8.7,0,13.1,0c0.5,0,1,0.1,1.4-0.2c0.7-2.3,1.4-6.1,1.4-7.1
		c-0.5,0-0.9,0-1.4,0c-6.8,0-13.7,0-20.5,0c-0.8,0-1.7,0.1-2.5,0.2c-2.2,0.3-3.7,1.4-4.7,3.3c-0.5,1-0.8,2.1-1.1,3.2
		c-0.2,1.1-0.5,2.2-0.7,3.3c-0.4,2-0.8,4-1.2,6c-0.2,0.8-0.2,1.6,0,2.3c0.3,1.3,1,2.2,2.4,2.5c0.7,0.2,1.4,0.2,2.1,0.2
		c4.4,0,8.7,0,13.1,0c0.4,0,0.9,0,1.3,0.1c0.5,0.1,0.8,0.4,0.7,0.9c0,0.4-0.1,0.8-0.2,1.2c-0.3,1.4-0.6,2.7-0.9,4.1
		c-0.3,1.3-0.7,1.6-2,1.6c-0.3,0-0.7,0-1,0c-5.6,0-11.2,0-16.7,0c-0.5,0-1-0.1-1.4,0.2C64.5,121.2,64,123.5,63.5,126z M66.7,155.1
		c0.6-0.2,1-0.1,1.5-0.1c4.1,0,8.3,0,12.4,0c0.9,0,1.7-0.1,2.6-0.2c1.9-0.3,3.3-1.3,4.2-3c0.5-1,0.9-2,1.1-3.1
		c0.5-2.5,1.1-5,1.6-7.5c0.4-1.9,0.8-3.8,1.1-5.8c0.1-0.7,0.1-1.5,0-2.2c-0.3-1.4-1.1-2.3-2.5-2.7c-0.8-0.2-1.5-0.3-2.3-0.3
		c-7.4,0-14.7,0-22.1,0c-0.3,0-0.6,0.1-0.8,0.1c-0.1,0.2-0.2,0.3-0.2,0.4c-0.4,2.1-0.9,4.2-1.3,6.3c0,0.2,0,0.4,0,0.6
		c0.5,0,0.8,0,1.2,0c1.4,0,2.7,0,4.1,0c4.4,0,8.9,0,13.3,0c0.6,0,1.1,0,1.7,0.2c0.3,0.6,0.1,1.2,0,1.7c-0.4,1.7-0.7,3.4-1.1,5.1
		c-0.1,0.6-0.2,1.2-0.4,1.8c-0.3,1.2-0.7,1.5-1.9,1.5c-0.1,0-0.2,0-0.3,0c-3.1,0-6.1,0-9.2,0c-0.3,0-0.7,0-1.1-0.1
		c0.1-0.5,0.1-0.8,0.2-1.2c0.4-1.7,0.8-3.5,1.1-5.2c0.1-0.5,0.3-1,0.2-1.6c-1,0-1.9,0-2.8,0c-1,0-1.9,0-2.9,0
		c-0.9,0-1.8-0.1-2.8,0.1c-1.8,8.6-3.6,17.1-5.5,25.7c-0.1,0.2,0,0.5-0.1,0.8c1.1,0.2,7.3,0.2,8.4,0C65.1,162.7,65.8,159,66.7,155.1
		z M110.5,107.4c0.4-2.8,1.2-5.3,1.6-7.9c-1.1-0.2-7.3-0.2-8.4,0c-0.4,1-5.5,25.2-5.6,26.5c0.9,0.3,1.9,0.1,2.8,0.2
		c0.9,0,1.8,0,2.7,0c0.9,0,1.9,0.2,2.8-0.2c0.1-0.4,0.2-0.8,0.3-1.2c0.6-3,1.3-6,1.9-9c0.1-0.4,0.1-0.9,0.5-1.3c0.4,0,0.9,0,1.4,0
		c4.1,0,8.2,0,12.3,0c0.7,0,1.3,0,2-0.1c2.3-0.3,4.1-1.4,5.1-3.6c0.4-0.9,0.7-1.9,1-2.8c0.8-3.7,1.6-7.5,2.4-11.3
		c0.2-1.2,0.5-2.4,0.3-3.6c-0.2-1.5-0.9-2.6-2.5-3c-0.9-0.2-1.8-0.4-2.7-0.4c-7.3,0-14.6,0-21.8,0c-0.3,0-0.6,0.1-0.8,0.1
		c-0.5,1.7-1.5,6.3-1.5,7.4c0.5,0,0.9,0,1.4,0c5.7,0,11.4,0,17.1,0c0.4,0,0.9,0,1.3,0.1c0.4,0.1,0.6,0.4,0.6,0.8
		c0,0.2,0,0.3-0.1,0.5c-0.5,2.4-1,4.8-1.6,7.2c-0.4,1.6-0.6,1.8-2.3,1.8c-3,0-6,0-9,0C111.4,107.5,111,107.5,110.5,107.4z
		 M113.9,130.3c-1.1-0.2-9.7-0.2-10.9,0c-0.2,0.4-0.4,0.8-0.7,1.2c-2.3,4.4-4.6,8.8-6.9,13.2c-3.6,6.8-7.1,13.7-10.7,20.5
		c-0.2,0.4-0.5,0.7-0.4,1.2c1.6,0.1,7.1,0.1,8.2-0.1c0.4-0.9,0.9-1.7,1.3-2.6c0.5-0.9,0.8-1.9,1.4-2.7c0.2,0,0.2-0.1,0.3-0.1
		c3.8,0,7.7,0,11.5,0c0.2,0,0.4,0.1,0.7,0.1c0.1,0.9,0.1,1.8,0.2,2.6c0.1,0.9,0,1.8,0.3,2.7c1,0,1.9,0,2.8,0c1,0,1.9,0,2.9,0
		c0.9,0,1.8,0.1,2.8-0.1c-0.9-11.9-1.8-23.7-2.7-35.5C114.1,130.7,114,130.5,113.9,130.3z M145.4,89.8c-0.7,0.9-16.8,31.7-18.6,35.5
		c-0.1,0.2-0.1,0.4-0.2,0.6c0.2,0.1,0.3,0.1,0.4,0.1c2.3,0,4.6,0,6.9,0c0.3,0,0.5-0.1,0.8-0.1c1-1.8,1.8-3.7,2.7-5.4
		c0.2,0,0.4-0.1,0.5-0.1c3.8,0,7.6,0,11.4,0c0.2,0,0.4,0.1,0.6,0.1c0,0.3,0.1,0.5,0.1,0.7c0.1,1.2,0.2,2.4,0.3,3.7
		c0,0.3,0.1,0.7,0.2,1c0.2,0.1,0.3,0.1,0.5,0.1c2.4,0,4.9,0,7.3,0c0.2,0,0.4-0.1,0.6-0.2c0-0.4,0-0.8,0-1.1
		c-0.1-1.7-0.2-3.4-0.4-5.1c-0.4-5-0.8-10.1-1.2-15.1c-0.4-4.7-0.7-9.4-1.1-14.1c0-0.2-0.1-0.5-0.1-0.7
		C155.1,89.7,146.7,89.6,145.4,89.8z M203,99.4c-1.8,8.7-3.7,17.3-5.5,26c0,0.2,0,0.3,0,0.5c0.5,0.2,1.1,0.2,1.6,0.2
		c7.6,0,15.2,0,22.8,0c0.6,0,1.1,0,1.7,0c0.3,0,0.6-0.1,0.9-0.1c0.3-1.3,0.5-2.5,0.8-3.7c0.2-1.2,0.6-2.4,0.7-3.8
		c-1.1,0-2.1,0-3.1,0c-1,0-2,0-3,0c-1,0-1.9,0-2.9,0c-1,0-2,0-3,0c-1,0-2,0-3,0c-1,0-2,0-3.1,0c0.1-1.3,0.4-2.4,0.7-3.5
		c0.3-1.1,0.3-2.3,0.9-3.5c0.5,0,1,0,1.4,0c3.4,0,6.8,0,10.2,0c0.5,0,1,0.1,1.4-0.2c0.7-2.2,1.2-5,1.1-5.9c-0.4-0.2-0.9-0.1-1.4-0.1
		c-3.4,0-6.8,0-10.2,0c-0.4,0-0.9,0.1-1.3-0.3c0.2-0.9,0.4-1.8,0.6-2.7c0.2-0.9,0.5-1.8,0.5-2.8C210.7,99.3,204.7,99.3,203,99.4z
		 M56.1,96.2 M167.4,137.8c-0.4,2.1-0.8,4-1.2,5.9c-0.4,1.9-0.8,3.8-1.2,5.6c-0.4,1.9-0.8,3.8-1.2,5.8c-0.4,1.9-0.8,3.8-1.2,5.6
		c-0.4,1.9-0.9,3.8-1.2,5.7c1.3,0.2,7.4,0.1,8.5,0c2-9.5,4-19,6.1-28.7c2.9-0.1,5.8,0,8.6-0.1c0.4-0.8,0.5-1.7,0.7-2.5
		c0.2-0.8,0.4-1.7,0.5-2.6c0.1-0.8,0.5-1.6,0.3-2.5c-8.4,0-16.8,0-25.1,0c-0.2,0-0.4,0.1-0.6,0.1c-0.5,1.6-1.5,6.3-1.5,7.4
		c0.9,0.1,1.8,0,2.7,0c1,0,1.9,0,2.9,0C165.4,137.7,166.4,137.7,167.4,137.8z M57,127.9c-0.5-0.1-0.8-0.2-1.2-0.3 M230.6,97.1
		c0.5-2.3,0.9-4.5,1.4-6.7c0-0.2,0-0.4-0.1-0.6c-0.2-0.1-0.2-0.1-0.3-0.1c-8.4,0-16.7,0-25.1,0c-0.4,0-0.8,0-1.2,0c0,0-0.1,0-0.1,0
		c0,0-0.1,0-0.3,0.2c-0.5,2.3-1.1,4.7-1.5,7.2c0.4,0,0.7,0.1,1,0.1C212.7,97.3,229.1,97.3,230.6,97.1z"/>
	<path d="M132.9,146.7c0.5,0,0.9,0,1.2,0c3,0,5.9,0,8.9,0c0.3,0,0.7,0,1,0c0.7,0,1.1-0.4,1.3-1c0-0.1,0.1-0.2,0.1-0.4
		c0.5-2.1,0.9-4.2,1.4-6.3c0-0.2,0-0.3,0-0.5c0-0.5-0.2-0.7-0.7-0.8c-0.5-0.1-1-0.1-1.6-0.1c-5.6,0-11.3,0-16.9,0
		c-0.5,0-1,0.1-1.5-0.2c0-0.2,0-0.3,0-0.5c0.5-2.2,0.9-4.5,1.5-6.8c0.4,0,0.8,0,1.2,0c7.3,0,14.6,0,21.9,0c0.7,0,1.4,0.1,2.1,0.2
		c2.3,0.4,3.5,1.9,3.2,4.6c-0.1,0.7-0.2,1.5-0.4,2.2c-0.5,2.4-1,4.9-1.5,7.3c-0.1,0.4-0.2,0.8-0.3,1.1c-0.5,1.6-1.4,2.8-2.9,3.5
		c-0.2,0.1-0.4,0.2-0.7,0.4c0.2,0.1,0.3,0.3,0.5,0.4c1.7,0.5,2.2,2.1,1.9,3.8c-0.2,1.1-0.4,2.1-0.7,3.2c-0.6,2.9-1.2,5.9-1.8,8.8
		c-0.1,0.3-0.2,0.6-0.3,0.9c-2.8,0-5.5,0-8.3,0c-0.1-0.5,0-0.9,0.1-1.3c0.7-3.4,1.4-6.8,2.1-10.2c0.3-1.6,0.2-1.8-1.4-1.8
		c-3.4,0-6.7,0-10.1,0c-0.3,0-0.6,0-1,0.1c-1,4.4-1.8,8.8-2.8,13.2c-0.9,0.1-1.8,0.1-2.7,0.1c-1,0-1.9,0-2.9,0
		c-0.9,0-1.8,0.1-2.8-0.1c0-0.2,0-0.4,0-0.5c1.8-8.7,3.7-17.3,5.5-26c1-0.3,1.9-0.1,2.8-0.1c1,0,1.9,0,2.9,0c0.9,0,1.8,0,2.7,0
		c0.3,0.3,0.1,0.6,0.1,0.8c-0.3,1.5-0.6,3.1-1,4.6C133.1,145.7,133,146.1,132.9,146.7z"/>
	<path d="M168.5,97.2c0.5-2.6,1-4.9,1.5-7.3c0.5-0.3,1-0.2,1.5-0.2c6,0,12,0,18.1,0c1.2,0,2.4,0,3.5,0c1,0.1,1.9,0.2,2.8,0.4
		c1.6,0.4,2.4,1.6,2.6,3.2c0.1,1-0.1,2-0.3,3c-0.5,2.5-1.1,5-1.6,7.5c-0.1,0.4-0.2,0.8-0.4,1.3c-0.5,1.5-1.4,2.7-2.8,3.4
		c-0.3,0.1-0.5,0.3-0.8,0.5c0.4,0.2,0.7,0.3,1.1,0.5c0.8,0.4,1.3,1.1,1.4,2.1c0.1,0.6,0.1,1.1,0,1.7c-0.9,4.2-1.7,8.4-2.6,12.6
		c-0.2,0.1-0.4,0.2-0.6,0.2c-2.4,0-4.9,0-7.3,0c-0.2,0-0.3-0.1-0.6-0.1c0-0.3,0.1-0.6,0.1-0.9c0.7-3.4,1.4-6.7,2.1-10.1
		c0.1-0.4,0.2-0.9,0.2-1.3c0.1-0.5-0.1-0.7-0.6-0.8c-0.3-0.1-0.6-0.1-0.9-0.1c-3.4,0-6.8,0-10.2,0c-0.3,0-0.5,0-0.8,0.1
		c-0.3,0.5-0.4,1.1-0.5,1.6c-0.7,3.5-1.4,6.9-2.2,10.4c-0.1,0.4-0.2,0.7-0.3,1.1c-0.2,0.1-0.3,0.2-0.4,0.2c-2.5,0-5,0-7.5,0
		c-0.2,0-0.3-0.1-0.5-0.1c-0.1-0.1-0.1-0.1-0.1-0.2c0,0,0-0.1,0-0.1c1.8-8.4,3.5-16.7,5.3-25.1c0.1-0.4,0.2-0.8,0.3-1.2
		c0.9-0.2,1.8-0.1,2.7-0.1c1,0,1.9,0,2.9,0c0.9,0,1.8,0,2.8,0c0,0.4,0,0.7-0.1,1c-0.3,1.7-0.7,3.3-1.1,5c-0.1,0.3-0.1,0.6-0.1,0.9
		c0.4,0,0.8,0.1,1.1,0.1c3,0,6,0,9,0c1.9,0,2.1-0.2,2.6-2.1c0.4-1.7,0.8-3.4,1.1-5.1c0.1-0.4,0.1-0.8,0.1-1.2c0-0.4-0.2-0.7-0.6-0.7
		c-0.5-0.1-1-0.1-1.4-0.1c-5.7,0-11.3,0-17,0C169.6,97.2,169.1,97.2,168.5,97.2z"/>
	<path d="M182.5,166.6c0.1-1.4,1.2-6.4,1.6-7.5c0.4,0,0.9,0,1.4,0c5.6,0,11.3,0,16.9,0c0.4,0,0.9,0,1.3,0c0.7,0,1.1-0.4,1.3-1.1
		c0-0.1,0-0.2,0.1-0.3c0.4-1.7,0.7-3.4,1.1-5.1c0-0.2,0.1-0.3,0.1-0.5c0-0.4-0.2-0.7-0.6-0.7c-0.5-0.1-1-0.1-1.4-0.1
		c-4.2,0-8.5,0-12.7,0c-0.6,0-1.1,0-1.7-0.1c-2.3-0.3-3.3-1.9-3.2-4c0-0.6,0.1-1.2,0.3-1.8c0.6-2.8,1.2-5.6,1.8-8.4
		c0.2-0.9,0.5-1.8,0.8-2.6c1-2.6,3-3.9,5.7-4.1c0.4,0,0.8,0,1.2,0c7.2,0,14.3,0,21.5,0c0.3,0,0.7,0,1.1,0c0,0.3,0.1,0.5,0,0.7
		c-0.4,2.1-0.9,4.2-1.3,6.3c0,0.1-0.1,0.1-0.1,0.2c-0.4,0.2-0.9,0.1-1.4,0.1c-5.6,0-11.2,0-16.8,0c-0.4,0-0.8,0-1.2,0
		c-0.6,0-1,0.3-1.2,0.8c-0.1,0.2-0.2,0.5-0.2,0.7c-0.3,1.5-0.7,3.1-1,4.6c0,0.2-0.1,0.3-0.1,0.5c0,0.3,0.2,0.6,0.5,0.6
		c0.4,0,0.8,0,1.2,0c4.4,0,8.7,0,13.1,0c0.8,0,1.6,0.1,2.3,0.2c1.4,0.3,2.4,1.4,2.5,2.8c0.1,0.8,0,1.7-0.1,2.5
		c-0.6,3.2-1.3,6.5-2,9.7c-0.2,1.2-0.6,2.3-1.2,3.3c-0.9,1.5-2.2,2.5-3.9,2.8c-0.7,0.1-1.5,0.3-2.2,0.3c-7.5,0-15,0-22.5,0
		C183,166.6,182.8,166.6,182.5,166.6z"/>
	<path d="M63.5,126c0.5-2.5,1-4.9,1.5-7.2c0.5-0.3,1-0.2,1.4-0.2c5.6,0,11.2,0,16.7,0c0.3,0,0.7,0,1,0c1.3,0,1.7-0.3,2-1.6
		c0.3-1.4,0.6-2.7,0.9-4.1c0.1-0.4,0.2-0.8,0.2-1.2c0-0.5-0.2-0.8-0.7-0.9c-0.4-0.1-0.9-0.1-1.3-0.1c-4.4,0-8.7,0-13.1,0
		c-0.7,0-1.4-0.1-2.1-0.2c-1.3-0.3-2.1-1.2-2.4-2.5c-0.2-0.8-0.1-1.6,0-2.3c0.4-2,0.8-4,1.2-6c0.2-1.1,0.5-2.2,0.7-3.3
		c0.2-1.1,0.6-2.2,1.1-3.2c1-1.9,2.6-3,4.7-3.3c0.8-0.1,1.6-0.2,2.5-0.2c6.8,0,13.7,0,20.5,0c0.5,0,0.9,0,1.4,0
		c0.1,1-0.7,4.8-1.4,7.1c-0.4,0.2-0.9,0.2-1.4,0.2c-4.4,0-8.7,0-13.1,0c-1.3,0-2.5,0-3.8,0c-0.3,0-0.6,0-0.9,0
		c-1,0.1-1.3,0.3-1.5,1.3c-0.4,1.7-0.8,3.4-1.1,5.1c-0.1,0.7,0.1,1,0.8,1c0.4,0,0.8,0,1.2,0c4.2,0,8.4,0,12.6,0c0.6,0,1.2,0,1.8,0.1
		c2,0.2,3.2,1.5,3.3,3.6c0,0.6-0.1,1.2-0.2,1.8c-0.6,3.2-1.3,6.4-2,9.6c-0.2,1.1-0.6,2.1-1,3.1c-1,2-2.6,3.1-4.8,3.4
		c-0.7,0.1-1.4,0.1-2.1,0.1c-7.1,0-14.2,0-21.3,0C64.5,126.1,64.1,126.1,63.5,126z"/>
	<path d="M66.7,155.1c-0.9,3.8-1.6,7.6-2.4,11.3c-1.2,0.2-7.3,0.2-8.4,0c0-0.3,0-0.5,0.1-0.8c1.8-8.6,3.6-17.1,5.5-25.7
		c1-0.3,1.9-0.1,2.8-0.1c1,0,1.9,0,2.9,0c0.9,0,1.8,0,2.8,0c0.1,0.6-0.1,1.1-0.2,1.6c-0.4,1.7-0.8,3.5-1.1,5.2
		c-0.1,0.4-0.1,0.8-0.2,1.2c0.4,0,0.7,0.1,1.1,0.1c3.1,0,6.1,0,9.2,0c0.1,0,0.2,0,0.3,0c1.2,0,1.6-0.3,1.9-1.5
		c0.2-0.6,0.3-1.2,0.4-1.8c0.4-1.7,0.8-3.4,1.1-5.1c0.1-0.5,0.3-1.1,0-1.7c-0.5-0.3-1.1-0.2-1.7-0.2c-4.4,0-8.9,0-13.3,0
		c-1.4,0-2.7,0-4.1,0c-0.4,0-0.8,0-1.2,0c0-0.2-0.1-0.5,0-0.6c0.4-2.1,0.9-4.2,1.3-6.3c0-0.1,0.1-0.2,0.2-0.4c0.3,0,0.6-0.1,0.8-0.1
		c7.4,0,14.7,0,22.1,0c0.8,0,1.6,0.1,2.3,0.3c1.4,0.4,2.2,1.3,2.5,2.7c0.1,0.7,0.2,1.5,0,2.2c-0.4,1.9-0.7,3.8-1.1,5.8
		c-0.5,2.5-1.1,5-1.6,7.5c-0.2,1.1-0.6,2.1-1.1,3.1c-0.9,1.7-2.3,2.7-4.2,3c-0.9,0.1-1.7,0.2-2.6,0.2c-4.1,0-8.3,0-12.4,0
		C67.7,155,67.2,154.9,66.7,155.1z"/>
	<path d="M110.5,107.4c0.5,0,0.8,0.1,1.2,0.1c3,0,6,0,9,0c1.7,0,1.9-0.2,2.3-1.8c0.5-2.4,1-4.8,1.6-7.2c0-0.2,0.1-0.3,0.1-0.5
		c0-0.4-0.2-0.7-0.6-0.8c-0.4-0.1-0.9-0.1-1.3-0.1c-5.7,0-11.4,0-17.1,0c-0.5,0-0.9,0-1.4,0c0-1.1,0.9-5.7,1.5-7.4
		c0.3,0,0.6-0.1,0.8-0.1c7.3,0,14.6,0,21.8,0c0.9,0,1.8,0.2,2.7,0.4c1.5,0.4,2.3,1.5,2.5,3c0.1,1.2-0.1,2.4-0.3,3.6
		c-0.8,3.8-1.6,7.5-2.4,11.3c-0.2,1-0.6,1.9-1,2.8c-1,2.2-2.7,3.3-5.1,3.6c-0.6,0.1-1.3,0.1-2,0.1c-4.1,0-8.2,0-12.3,0
		c-0.5,0-1,0-1.4,0c-0.4,0.4-0.4,0.9-0.5,1.3c-0.6,3-1.3,6-1.9,9c-0.1,0.4-0.2,0.8-0.3,1.2c-0.9,0.3-1.9,0.1-2.8,0.2
		c-0.9,0-1.8,0-2.7,0c-0.9,0-1.9,0.2-2.8-0.2c0.1-1.3,5.2-25.4,5.6-26.5c1.1-0.2,7.3-0.2,8.4,0C111.7,102.1,110.9,104.7,110.5,107.4
		z"/>
	<path d="M113.9,130.3c0.1,0.2,0.1,0.4,0.2,0.6c0.9,11.8,1.8,23.6,2.7,35.5c-1,0.3-1.9,0.1-2.8,0.1c-1,0-1.9,0-2.9,0
		c-0.9,0-1.8,0-2.8,0c-0.3-0.9-0.2-1.9-0.3-2.7c-0.1-0.9-0.1-1.7-0.2-2.6c-0.3-0.1-0.5-0.1-0.7-0.1c-3.8,0-7.7,0-11.5,0
		c-0.1,0-0.2,0-0.3,0.1c-0.6,0.8-1,1.8-1.4,2.7c-0.5,0.9-0.9,1.8-1.3,2.6c-1.1,0.2-6.6,0.2-8.2,0.1c-0.1-0.5,0.2-0.8,0.4-1.2
		c3.6-6.8,7.1-13.7,10.7-20.5c2.3-4.4,4.6-8.8,6.9-13.2c0.2-0.4,0.4-0.8,0.7-1.2C104.2,130.1,112.9,130.1,113.9,130.3z M107.4,154.4
		c0.1-1-0.6-12.8-0.9-15.1c0-0.1-0.1-0.1-0.2-0.2c-0.2,0.3-0.4,0.7-0.6,1c-2.2,4.4-4.4,8.7-6.6,13.1c-0.2,0.4-0.6,0.8-0.5,1.4
		c2.8,0,5.6,0,8.4,0C107.2,154.5,107.3,154.4,107.4,154.4z"/>
	<path d="M145.4,89.8c1.2-0.2,9.6-0.1,10.8,0c0,0.2,0.1,0.5,0.1,0.7c0.4,4.7,0.7,9.4,1.1,14.1c0.4,5,0.8,10.1,1.2,15.1
		c0.1,1.7,0.2,3.4,0.4,5.1c0,0.3,0,0.7,0,1.1c-0.2,0.1-0.4,0.2-0.6,0.2c-2.4,0-4.9,0-7.3,0c-0.1,0-0.2-0.1-0.5-0.1
		c-0.1-0.3-0.2-0.6-0.2-1c-0.1-1.2-0.2-2.4-0.3-3.7c0-0.2-0.1-0.4-0.1-0.7c-0.2-0.1-0.4-0.1-0.6-0.1c-3.8,0-7.6,0-11.4,0
		c-0.1,0-0.3,0-0.5,0.1c-1,1.7-1.8,3.6-2.7,5.4c-0.3,0-0.6,0.1-0.8,0.1c-2.3,0-4.6,0-6.9,0c-0.1,0-0.2-0.1-0.4-0.1
		c0.1-0.2,0.1-0.4,0.2-0.6C128.7,121.5,144.8,90.7,145.4,89.8z M140.9,114c0.2,0,0.4,0.1,0.5,0.1c2.6,0,5.1,0,7.7,0
		c0.2,0,0.4-0.1,0.6-0.2c-0.3-4.1-0.5-8.2-0.8-12.3c-0.1-0.9-0.2-1.8-0.2-2.7c0,0,0-0.1-0.1-0.1c0,0-0.1,0-0.1,0
		c-0.6,0.8-6.5,12.2-7.6,14.7C140.9,113.6,140.9,113.8,140.9,114z"/>
	<path d="M203,99.4c1.7-0.2,7.7-0.1,8.7,0c0,1-0.3,1.9-0.5,2.8c-0.2,0.9-0.4,1.8-0.6,2.7c0.4,0.4,0.9,0.3,1.3,0.3
		c3.4,0,6.8,0,10.2,0c0.5,0,1-0.1,1.4,0.1c0.1,0.9-0.5,3.7-1.1,5.9c-0.4,0.2-0.9,0.1-1.4,0.2c-3.4,0-6.8,0-10.2,0c-0.5,0-1,0-1.4,0
		c-0.5,1.1-0.6,2.3-0.9,3.5c-0.2,1.1-0.6,2.3-0.7,3.5c1.1,0.1,2.1,0,3.1,0c1,0,2,0,3,0c1,0,2,0,3,0c1,0,1.9,0,2.9,0c1,0,2,0,3,0
		c1,0,2,0,3.1,0c0,1.3-0.4,2.5-0.7,3.8c-0.2,1.2-0.5,2.5-0.8,3.7c-0.4,0.1-0.6,0.1-0.9,0.1c-0.6,0-1.1,0-1.7,0c-7.6,0-15.2,0-22.8,0
		c-0.5,0-1,0.1-1.6-0.2c0-0.2-0.1-0.4,0-0.5C199.3,116.8,201.1,108.1,203,99.4z"/>
	<path d="M56.1,96.2"/>
	<path d="M167.4,137.8c-1.1-0.1-2-0.1-2.9-0.1c-1,0-1.9,0-2.9,0c-0.9,0-1.8,0-2.7,0c0-1.1,1-5.8,1.5-7.4c0.2,0,0.4-0.1,0.6-0.1
		c8.4,0,16.7,0,25.1,0c0.2,0.9-0.2,1.7-0.3,2.5c-0.1,0.9-0.3,1.7-0.5,2.6c-0.2,0.8-0.2,1.6-0.7,2.5c-2.8,0.1-5.7,0-8.6,0.1
		c-2,9.6-4.1,19.2-6.1,28.7c-1.1,0.2-7.3,0.2-8.5,0c0.3-1.9,0.8-3.8,1.2-5.7c0.4-1.9,0.8-3.8,1.2-5.6c0.4-1.9,0.8-3.8,1.2-5.8
		c0.4-1.9,0.8-3.8,1.2-5.6C166.6,141.8,167,139.9,167.4,137.8z"/>
	<path d="M55.8,127.6c0.4,0.1,0.7,0.2,1.2,0.3"/>
	<path d="M230.6,97.1c-1.5,0.2-17.9,0.3-26.1,0.1c-0.3,0-0.6,0-1-0.1c0.4-2.5,1-4.9,1.5-7.2c0.2-0.1,0.2-0.2,0.3-0.2
		c0,0,0.1,0,0.1,0c0.4,0,0.8,0,1.2,0c8.4,0,16.7,0,25.1,0c0.1,0,0.2,0,0.3,0.1c0,0.2,0.1,0.4,0.1,0.6
		C231.5,92.6,231,94.8,230.6,97.1z"/>
	<path class="st0" d="M107.4,154.4c-0.1,0-0.2,0.1-0.3,0.1c-2.8,0-5.6,0-8.4,0c-0.1-0.6,0.2-1,0.5-1.4c2.2-4.4,4.4-8.7,6.6-13.1
		c0.2-0.3,0.4-0.7,0.6-1c0.1,0.1,0.2,0.1,0.2,0.2C106.8,141.6,107.5,153.4,107.4,154.4z"/>
	<path class="st0" d="M140.9,114c0-0.2,0.1-0.4,0.1-0.5c1.1-2.5,7-14,7.6-14.7c0,0,0.1,0,0.1,0c0,0,0.1,0.1,0.1,0.1
		c0.1,0.9,0.2,1.8,0.2,2.7c0.3,4.1,0.5,8.2,0.8,12.3c-0.3,0.1-0.5,0.2-0.6,0.2c-2.6,0-5.1,0-7.7,0C141.3,114.1,141.1,114,140.9,114z
		"/>
</g>
<path class="st1" d="M56.1,96.2c-0.9-0.3-12.2-2.9-14.9-3.3c-0.1,0-0.2,0-0.5,0.1c-2.2,8.4-4.4,16.9-6.7,25.4
	c1.3,0.5,16.5,3.7,17.6,3.8C52.1,120.7,56.1,97.2,56.1,96.2"/>
<path class="st1" d="M30.5,164.3c-1.2-0.4-2.3-0.6-3.6-0.8c-0.5,1.6-0.7,3.3-1.1,4.9c0,0.2,0,0.4,0,0.7c4.2,0.9,8.4,1.8,12.6,2.7
	c0.1,0,0.2,0,0.4-0.1c0.1-0.2,0.1-0.4,0.2-0.6c0.9-4,1.7-8,2.6-12c0.1-0.5,0.1-1,0.5-1.5c1.3,0.1,2.5,0.6,3.8,0.8
	c0.1-0.1,0.2-0.2,0.2-0.4c0.6-2.6,1.1-5.2,1.7-7.8c0-0.1,0-0.3-0.1-0.5c-6.9-1.5-13.9-3-20.9-4.5c-0.1,0-0.3,0-0.4,0
	c-0.1,0.1-0.2,0.3-0.2,0.4c-0.5,2.4-1.1,4.8-1.6,7.3c0,0.2,0,0.5,0,0.7c1.3,0.5,2.6,0.4,3.9,1c0,1.3-0.7,2.4-0.6,3.8
	c1.2,0.2,2.3,0.7,3.5,0.7c0.5-1.1,0.4-2.4,1-3.4c0.2,0,0.4,0,0.6,0c1.4,0.3,2.9,0.6,4.3,0.9c0.2,0,0.3,0.2,0.5,0.4
	c-0.7,3.1-1.3,6.2-2,9.2c-0.1,0.2-0.2,0.5-0.3,0.7c-1.9-0.4-3.7-0.7-5.5-1.3C30.3,165.3,30.4,164.8,30.5,164.3z"/>
<path class="st1" d="M55.8,127.6c-1.8-0.4-3.6-0.8-5.4-1.1c-7.4-1.6-14.8-3.2-22.2-4.8c-0.4-0.1-0.8-0.2-1.3-0.1
	c-0.6,1.7-1.4,5.7-1.4,6.8c9.9,2.2,19.8,4.3,29.8,6.4c0.5-0.9,1.2-3.9,1.7-6.8"/>
<path class="st1" d="M48.8,145.3c0.6-1.4,1.5-6,1.5-7c-0.8-0.3-19.3-4.4-21.2-4.6c-0.4,1-1.4,5.6-1.5,6.8c0.1,0.1,0.1,0.2,0.2,0.2
	C34.8,142.3,41.8,143.8,48.8,145.3z"/>
<path class="st1" d="M47.8,89.7c1.2,0.2,2.2,0.7,3.5,0.6c0.2-0.9,0.4-1.7,0.6-2.6c0.2-0.9,0.5-1.7,0.4-2.7c-1.2-0.2-2.3-0.7-3.5-0.7
	c-0.5,1.6-0.7,3.2-1,4.7C47.7,89.2,47.8,89.4,47.8,89.7z"/>
<path class="st1" d="M56.1,96.2c0,1.1-4,24.5-4.4,26c-1.1-0.1-16.3-3.3-17.6-3.8c2.2-8.5,4.5-17,6.7-25.4c0.2,0,0.3-0.1,0.5-0.1
	C43.9,93.3,55.3,95.8,56.1,96.2"/>
<path class="st1" d="M30.5,164.3c-0.1,0.6-0.2,1-0.3,1.5c1.8,0.6,3.6,0.9,5.5,1.3c0.1-0.3,0.2-0.5,0.3-0.7c0.7-3.1,1.3-6.1,2-9.2
	c-0.2-0.1-0.3-0.3-0.5-0.4c-1.4-0.3-2.9-0.6-4.3-0.9c-0.2,0-0.3,0-0.6,0c-0.6,1-0.4,2.3-1,3.4c-1.2,0.1-2.3-0.5-3.5-0.7
	c-0.1-1.4,0.6-2.5,0.6-3.8c-1.2-0.6-2.6-0.5-3.9-1c0-0.2-0.1-0.5,0-0.7c0.5-2.4,1-4.9,1.6-7.3c0-0.2,0.1-0.3,0.2-0.4
	c0.2,0,0.3-0.1,0.4,0c7,1.5,13.9,3,20.9,4.5c0,0.2,0.1,0.4,0.1,0.5c-0.6,2.6-1.1,5.2-1.7,7.8c0,0.1-0.1,0.2-0.2,0.4
	c-1.3-0.1-2.5-0.7-3.8-0.8c-0.4,0.4-0.4,1-0.5,1.5c-0.9,4-1.7,8-2.6,12c0,0.2-0.1,0.4-0.2,0.6c-0.2,0-0.3,0.1-0.4,0.1
	c-4.2-0.9-8.4-1.8-12.6-2.7c0-0.3,0-0.5,0-0.7c0.4-1.6,0.6-3.2,1.1-4.9C28.2,163.7,29.3,163.9,30.5,164.3z"/>
<path class="st1" d="M57,127.9c-0.5,2.9-1.2,6-1.7,6.8c-9.9-2.1-19.9-4.3-29.8-6.4c0-1.1,0.8-5.1,1.4-6.8c0.4-0.2,0.8,0,1.3,0.1
	c7.4,1.6,14.8,3.2,22.2,4.8c1.8,0.4,3.6,0.8,5.4,1.1"/>
<path class="st1" d="M48.8,145.3c-7.1-1.5-14.1-3.1-21.1-4.6c-0.1,0-0.1-0.1-0.2-0.2c0-1.3,1.1-5.9,1.5-6.8
	c1.9,0.3,20.4,4.3,21.2,4.6C50.3,139.3,49.4,143.9,48.8,145.3z"/>
<path class="st1" d="M47.8,89.7c0-0.3-0.1-0.5,0-0.7c0.3-1.6,0.6-3.1,1-4.7c1.2,0.1,2.3,0.5,3.5,0.7c0.1,1-0.3,1.8-0.4,2.7
	c-0.2,0.8-0.4,1.7-0.6,2.6C50,90.4,49,89.9,47.8,89.7z"/>
</svg>
