<?xml version="1.0" encoding="UTF-8"?>
<!-- Generator: Adobe Illustrator 17.1.0, SVG Export Plug-In . SVG Version: 6.00 Build 0)  -->
<svg xmlns="http://www.w3.org/2000/svg" xmlns:xlink="http://www.w3.org/1999/xlink" id="Capa_1" x="0px" y="0px" viewBox="0 0 255.506 255.506" style="enable-background:new 0 0 255.506 255.506;" xml:space="preserve">
<g>
	<path d="M71.404,107.644c-24.345,0-44.15,19.805-44.15,44.148c0,24.345,19.806,44.151,44.15,44.151   c24.345,0,44.15-19.807,44.15-44.151C115.555,127.449,95.749,107.644,71.404,107.644z M109.9,148.979H88.461   c-0.438-2.705-1.499-5.197-3.04-7.331l15.131-15.131C105.861,132.63,109.28,140.42,109.9,148.979z M74.175,113.295   c8.553,0.61,16.339,4.014,22.456,9.307L81.503,137.73c-2.132-1.541-4.624-2.602-7.328-3.04V113.295z M68.634,113.295v21.395   c-2.705,0.439-5.197,1.5-7.329,3.042l-15.128-15.129C52.293,117.31,60.081,113.906,68.634,113.295z M42.255,126.518l15.133,15.132   c-1.541,2.133-2.601,4.625-3.039,7.329h-21.44C33.528,140.421,36.946,132.632,42.255,126.518z M32.902,154.52h21.446   c0.438,2.703,1.499,5.194,3.039,7.327L42.215,177.02C36.911,170.893,33.504,163.089,32.902,154.52z M68.634,190.292   c-8.575-0.611-16.381-4.032-22.505-9.35l15.177-15.177c2.132,1.54,4.624,2.601,7.328,3.039V190.292z M58.876,151.749   c0-6.921,5.61-12.532,12.528-12.532c6.92,0,12.529,5.611,12.529,12.532c0,6.919-5.609,12.527-12.529,12.527   C64.486,164.277,58.876,158.668,58.876,151.749z M74.175,190.292v-21.487c2.704-0.438,5.195-1.498,7.328-3.039l15.176,15.177   C90.555,186.259,82.749,189.68,74.175,190.292z M100.594,177.021l-15.173-15.173c1.541-2.132,2.602-4.624,3.04-7.328h21.445   C109.305,163.09,105.896,170.894,100.594,177.021z"></path>
	<path d="M246.307,71.976c-0.973,0-1.971,0.14-2.968,0.414l-11.278,3.106l-11.712-28.531c-3.318-8.082-13.127-14.657-21.863-14.657   H88.877c-8.737,0-18.545,6.575-21.862,14.657L55.318,75.457L44.181,72.39c-0.997-0.274-1.995-0.414-2.968-0.414   c-5.331,0-9.199,4.072-9.199,9.683v6.649c0,1.258,0.2,2.469,0.563,3.606C12.989,104.66,0,126.731,0,151.792   c0,39.374,32.031,71.406,71.404,71.406c31.007,0,57.447-19.871,67.289-47.543h71.718v14.154c0,6.549,5.328,11.877,11.877,11.877   h15.511c6.549,0,11.877-5.328,11.877-11.877v-56.68c0-8.119-2.508-20.832-5.591-28.34l-1.89-4.604h1.434   c6.549,0,11.877-5.328,11.877-11.877v-6.649C255.506,76.048,251.638,71.976,246.307,71.976z M81.551,50.58   c1.984-4.835,7.884-8.79,13.11-8.79h98.041c5.227,0,11.126,3.955,13.11,8.79l17.717,43.154c1.984,4.835-0.667,8.79-5.894,8.79   h-94.621c-13.011-13.623-31.329-22.136-51.61-22.136c-0.708,0-1.408,0.033-2.112,0.054L81.551,50.58z M71.404,202.508   c-28.008,0-50.716-22.707-50.716-50.717c0-28.007,22.708-50.713,50.716-50.713c28.008,0,50.716,22.706,50.716,50.713   C122.12,179.801,99.412,202.508,71.404,202.508z M226.816,148.319c0,2.613-2.138,4.751-4.751,4.751h-33.653   c-2.613,0-4.751-2.138-4.751-4.751v-16.152c0-2.613,2.138-4.751,4.751-4.751h33.653c2.613,0,4.751,2.138,4.751,4.751V148.319z"></path>
</g>
<g>
</g>
<g>
</g>
<g>
</g>
<g>
</g>
<g>
</g>
<g>
</g>
<g>
</g>
<g>
</g>
<g>
</g>
<g>
</g>
<g>
</g>
<g>
</g>
<g>
</g>
<g>
</g>
<g>
</g>
</svg>
