<?xml version="1.0" encoding="UTF-8"?>
<!-- Generator: Adobe Illustrator 24.1.2, SVG Export Plug-In . SVG Version: 6.00 Build 0)  -->
<svg xmlns="http://www.w3.org/2000/svg" xmlns:xlink="http://www.w3.org/1999/xlink" id="Layer_1" x="0px" y="0px" width="3508px" height="2480px" viewBox="0 0 3508 2480" style="enable-background:new 0 0 3508 2480;" xml:space="preserve">
<style type="text/css">
	.st0{fill:#F22935;}
	.st1{fill:#FE671E;}
	.st2{fill:#010101;}
</style>
<g>
	<path class="st0" d="M1673.644,1246.625c-19.556,49.792-38.212,97.467-56.999,145.09   c-60.25,152.727-120.564,305.429-180.787,458.167c-3.317,8.413-5.464,15.13-17.981,15.112   c-337.807-0.479-675.615-0.382-1013.423-0.382c-2.83,0-5.66,0-10.39,0c81.581-206.773,162.674-412.311,243.822-617.987   C982.538,1246.625,1326.836,1246.625,1673.644,1246.625z"></path>
	<path class="st1" d="M1563.27,579.212c-22.776,57.858-44.601,113.438-66.528,168.978   c-57.677,146.089-115.509,292.116-172.84,438.34c-3.614,9.216-7.972,11.738-17.487,11.73   c-299.233-0.263-598.466-0.216-897.698-0.216c-3.786,0-7.572,0-13.464,0c1.477-5.04,2.298-8.942,3.739-12.599   c77.952-197.769,156.01-395.497,233.775-593.339c3.497-8.896,6.959-13.214,17.81-13.201c299.709,0.383,599.418,0.307,899.128,0.307   C1553.48,579.212,1557.256,579.212,1563.27,579.212z"></path>
	<path class="st2" d="M1933.209,1450.509c-29.011,81.569-56.76,159.413-84.378,237.304   c-19.481,54.942-38.734,109.964-58.244,164.896c-2.081,5.859-2.896,12.189-12.632,12.148c-97.655-0.412-195.313-0.25-294.695-0.25   c82.46-207.026,164.488-412.966,246.668-619.287c133.133,0,266.497,0,401.209,0c28.93,107.415,57.939,215.126,87.953,326.565   c39.739-110.958,78.324-218.697,116.975-326.617c85.99,0,171.726,0,258.643,0c-16.781,42.392-33.47,84.446-50.082,126.531   c-63.298,160.36-126.567,320.731-189.865,481.091c-2.312,5.858-2.958,12.007-12.573,11.967   c-97.167-0.408-194.337-0.249-292.369-0.249C2011.177,1727.379,1972.641,1590.533,1933.209,1450.509z"></path>
	<path class="st2" d="M1909.145,579.222c-37.27,99.641-73.824,197.366-110.378,295.092c1.071,0.617,2.142,1.233,3.214,1.85   c11.838-13.909,23.821-27.698,35.49-41.747c68.02-81.896,135.888-163.917,204.147-245.613c3.755-4.494,10.537-9.14,15.942-9.178   c82.382-0.58,164.77-0.404,248.745-0.404c-1.741,3.223-2.602,5.729-4.19,7.628c-59.706,71.42-119.489,142.776-179.237,214.161   c-25.606,30.594-50.979,61.386-76.865,91.742c-6.177,7.244-7.117,13.827-4.609,22.955c25.427,92.568,50.385,185.265,75.422,277.94   c0.352,1.302,0.044,2.782,0.044,5.213c-5.127,0-10.249,0-15.371,0c-77.175,0-154.353-0.376-231.52,0.373   c-12.746,0.124-17.699-3.45-21.157-15.56c-23.497-82.291-47.814-164.348-72.78-249.601c-11.734,29.786-22.546,57.012-33.192,84.303   c-22.072,56.583-43.898,113.263-66.375,169.685c-1.779,4.466-7.797,10.323-11.877,10.348   c-95.711,0.583-191.426,0.452-289.132,0.452c9.603-24.866,18.621-48.585,27.905-72.2c70.424-179.13,140.848-358.26,211.672-537.231   c1.717-4.34,8.062-9.753,12.278-9.779C1720.672,579.09,1814.027,579.222,1909.145,579.222z"></path>
	<path class="st2" d="M2605.688,969.767c-18.701,49.248-82.724,48.872-114.232,23.528c-24.395-19.622-20.503-63.432,6.185-83.966   c19.512-15.013,42.416-21.105,66.065-24.088c90.435-11.408,167.021,18.43,233.23,79.02c17.156,15.7,35.077,30.595,53.118,45.282   c6.146,5.004,13.41,9.01,20.742,12.103c11.691,4.932,24.995,5.636,32.804-4.925c5.458-7.382,8.578-19.461,6.944-28.382   c-2.245-12.258-13.671-19.437-26.382-20.401c-14.003-1.061-28.149-0.242-44.656-0.242c5.838-7.351,11.378-16.057,18.562-23.085   c40.159-39.288,115.998-24.117,151.387,18.847c51.195,62.153,34.313,198.14-57.435,230.628   c-62.5,22.132-121.494,13.955-174.994-26.202c-25.329-19.012-44.758-43.49-61.978-69.827c-3.018-4.616-6.545-8.9-10.06-13.637   c-14.607,14.063-27.398,27.966-41.792,39.947c-50.621,42.138-109.859,63.533-174.685,72.261   c-60.919,8.202-121.311,4.025-181.098-7.012c-48.942-9.035-95.873-25.133-129.848-64.698   c-35.014-40.775-44.573-89.595-38.167-141.274c11.369-91.713,71.654-142.683,151.71-175.777   c25.134-10.39,25.341-9.889,14.652-35.398c-19.762-47.163-1.64-110.618,40.012-143.749c31.973-25.431,69.205-37.964,108.549-42.768   c56.894-6.946,113.898-6.34,169.48,10.817c41.187,12.714,77.862,32.58,104.423,67.85c28.994,38.501,31.889,88.697,6.718,123.454   c-16.799,23.195-40.827,31.863-68.437,30.821c-11.722-0.443-23.774-2.365-34.907-5.98c-20.431-6.634-33.898-26.842-33.255-46.839   c0.581-18.07,16.638-36.258,37.157-41.935c4.563-1.262,9.229-2.155,16.262-3.774c-3.114-3.992-4.941-8.534-8.233-10.217   c-35.517-18.156-71.692-24.788-108.529-3.635c-43.3,24.864-47.764,83.58-7.827,113.409c13.001,9.71,28.796,15.687,43.833,23.646   c-18.183,16.918-41.372,23.399-64.661,29.729c-27.997,7.61-55.294,16.624-78.854,34.598   c-51.806,39.522-40.714,108.912,16.585,135.536c48.072,22.337,96.955,19.29,144.246-3.788   c24.951-12.177,35.727-29.798,32.223-51.384c-1.187-7.313-6.507-13.957-9.939-20.907   C2608.964,968.157,2607.326,968.962,2605.688,969.767z"></path>
</g>
<g>
	<path d="M2512.32,1814.96c-0.646,2.833-1.327,5.659-1.93,8.501c-2.844,13.394-5.672,26.792-8.482,40.193   c-0.184,0.877-0.5,1.266-1.478,1.206c-1.587-0.097-3.185-0.026-5.011-0.026c3.276-15.194,6.518-30.231,9.806-45.482   c-0.26,0.404-0.433,0.639-0.572,0.894c-7.942,14.598-15.876,29.2-23.849,43.781c-0.21,0.383-0.818,0.743-1.261,0.77   c-1.551,0.094-3.111,0.036-4.897,0.036c-1.788-15.112-3.572-30.186-5.396-45.601c-0.573,3.126-1.04,5.937-1.609,8.726   c-2.441,11.969-4.92,23.931-7.355,35.901c-0.147,0.722-0.374,1.019-1.146,0.991c-1.591-0.057-3.185-0.017-4.978-0.017   c0.401-1.97,0.76-3.793,1.144-5.61c3.021-14.295,6.066-28.585,9.04-42.889c0.267-1.282,0.746-1.657,2.028-1.601   c2.55,0.112,5.109,0.033,7.903,0.033c1.713,13.92,3.417,27.776,5.136,41.746c0.209-0.369,0.414-0.723,0.613-1.08   c7.435-13.328,14.863-26.66,22.334-39.968c0.205-0.365,0.868-0.656,1.326-0.668c2.876-0.075,5.755-0.061,8.632-0.077   C2512.32,1814.8,2512.32,1814.88,2512.32,1814.96z"></path>
	<path d="M2434.119,1820.039c-5.24,0-10.292,0-15.529,0c0.396-1.864,0.749-3.526,1.109-5.221c12.433,0,24.777,0,37.324,0   c-0.353,1.631-0.646,3.217-1.081,4.763c-0.068,0.241-0.779,0.423-1.193,0.426c-4.358,0.031-8.717,0.056-13.074-0.005   c-1.105-0.016-1.47,0.357-1.691,1.422c-2.915,14.068-5.884,28.125-8.843,42.184c-0.081,0.384-0.196,0.76-0.301,1.165   c-2.032,0-4.018,0-6.158,0C2427.82,1849.9,2430.938,1835.116,2434.119,1820.039z"></path>
</g>
</svg>
