<?xml version="1.0" encoding="UTF-8"?>
<!-- Generator: Adobe Illustrator 24.1.2, SVG Export Plug-In . SVG Version: 6.00 Build 0)  -->
<svg xmlns="http://www.w3.org/2000/svg" xmlns:xlink="http://www.w3.org/1999/xlink" id="Layer_1" x="0px" y="0px" width="3508px" height="2480px" viewBox="0 0 3508 2480" style="enable-background:new 0 0 3508 2480;" xml:space="preserve">
<style type="text/css">
	.st0{fill:#EC252F;}
</style>
<g>
	<path class="st0" d="M3034,1586.997c-853.331,0.002-1706.663,0.002-2559.997,0.003c-0.002-231.664-0.002-463.329-0.003-694.997   c853.33-0.002,1706.663-0.002,2559.996-0.003C3033.998,1123.664,3033.998,1355.329,3034,1586.997z M932.221,1197.007   c-0.584-2.287-0.914-3.222-1.056-4.184c-8.684-58.791-17.422-117.575-25.886-176.398c-0.635-4.414-2.105-5.275-6.196-5.265   c-55.33,0.131-110.66,0.143-165.989-0.023c-4.12-0.012-5.688,1.247-6.826,5.084c-44.309,149.38-88.729,298.728-133.119,448.084   c-0.49,1.649-0.783,3.357-1.263,5.448c2.301,0,3.956,0,5.611,0c51.664,0,103.327-0.072,154.99,0.125   c4.561,0.017,6.241-1.344,7.338-5.642c13.649-53.504,27.478-106.961,41.278-160.426c3.004-11.639,6.078-23.26,9.12-34.89   c0.25,0.03,0.5,0.06,0.749,0.089c10.196,66.922,20.392,133.844,30.628,201.03c2.251,0,4.065,0,5.88,0   c32.331,0,64.663-0.074,96.994,0.094c4.044,0.021,6.004-1.107,7.688-4.949c27.567-62.902,55.325-125.72,83.055-188.55   c0.616-1.395,1.411-2.711,2.123-4.064c0.244,0.091,0.488,0.183,0.731,0.274c-2.938,65.628-5.876,131.255-8.817,196.95   c54.419,0,108.185,0,162.028,0c0-152.927,0-305.608,0-458.35c-1.438-0.081-2.431-0.185-3.425-0.185   c-57.663-0.008-115.326,0.034-172.989-0.108c-3.67-0.009-4.763,1.705-5.953,4.531c-15.556,36.932-31.205,73.825-46.825,110.73   C952.31,1149.513,942.538,1172.621,932.221,1197.007z M1750.232,1236.108c-0.752-10.626-0.99-21.32-2.387-31.861   c-1.729-13.047-4.509-25.895-13.039-36.664c-30.82-38.913-61.682-77.792-92.289-116.872   c-10.351-13.216-23.239-22.558-38.724-28.719c-35.449-14.105-72.468-19.176-110.353-20.364   c-54.212-1.7-104.631,11.091-149.726,40.984c-83.272,55.201-120.984,133.089-109.239,232.709   c8.395,71.207,45.37,125.374,106.649,162.116c66.546,39.901,138.392,51.477,214.363,35.662   C1662.79,1450.761,1751.887,1355.618,1750.232,1236.108z M2153.65,1011.383c-0.24,1.448-0.498,2.721-0.655,4.006   c-1.82,14.873-3.618,29.749-5.433,44.622c-4.176,34.208-8.361,68.416-12.538,102.624c-3.874,31.729-7.77,63.456-11.6,95.191   c-2.633,21.812-5.134,43.561-5.078,65.669c0.111,44.192,17.657,79.558,51.236,107.492c22.971,19.109,49.22,32.076,77.615,40.973   c26.211,8.213,53.284,9.919,80.454,10.464c36.208,0.727,71.833-3.225,106.127-15.558c65.293-23.483,106.184-68.535,119.269-137.215   c3.606-18.926,4.976-38.283,7.247-57.457c4.916-41.501,9.764-83.01,14.615-124.519c4.272-36.547,8.521-73.097,12.758-109.648   c1.024-8.835,1.96-17.679,2.95-26.633c-56.575,0-112.49,0-168.516,0c-0.363,2.04-0.743,3.83-0.994,5.638   c-6.143,44.354-12.25,88.714-18.409,133.066c-6.549,47.154-12.977,94.327-19.817,141.439c-2.241,15.439-7.653,29.553-20.525,39.821   c-23.996,19.142-58.762,9.386-66.632-19.174c-1.641-5.955-2-12.564-1.49-18.751c1.272-15.424,3.378-30.78,5.161-46.162   c3.854-33.244,7.724-66.485,11.573-99.73c3.887-33.575,7.763-67.151,11.627-100.729c1.347-11.706,2.641-23.418,3.993-35.431   C2268.715,1011.383,2211.315,1011.383,2153.65,1011.383z M2116.459,1011.504c-147.411,0-294.206,0-441.369,0   c0.614,0.993,0.909,1.583,1.306,2.096c36.289,46.892,72.563,93.796,108.987,140.583c1.14,1.465,3.855,2.468,5.805,2.42   c19.653-0.486,39.299-1.244,58.948-1.898c1.254-0.042,2.516,0.146,4.157,0.251c-13.393,105.036-26.732,209.651-40.108,314.552   c59.152,0,117.737,0,176.687,0c12.466-105.252,24.909-210.306,37.387-315.662c24.474,0.974,48.398,1.926,72.916,2.902   C2106.279,1108.239,2111.357,1059.982,2116.459,1011.504z M2774.383,1324.69c13.127-104.668,26.188-208.81,39.285-313.243   c-58.758,0-117.104,0-175.563,0c-20.489,152.842-40.932,305.334-61.438,458.306c2.035,0,3.182,0,4.329,0   c95.636,0,191.273-0.015,286.91,0.064c3.201,0.003,4.544-0.881,5.441-4.108c9.801-35.238,19.802-70.42,29.747-105.618   c3.28-11.608,6.556-23.217,9.997-35.401C2866.669,1324.69,2820.906,1324.69,2774.383,1324.69z"></path>
	<path class="st0" d="M1487.366,1335.55c-44.141-0.086-76.843-33.219-81.236-72.125c-4.604-40.772,9.756-74.195,44.641-96.89   c35.939-23.381,83.858-16,108.463,16.367c15.924,20.948,20.138,45.344,16.818,71.03c-4.334,33.528-22.048,57.908-52.015,73.306   C1512.934,1332.944,1500.614,1335.404,1487.366,1335.55z"></path>
</g>
</svg>
