<?xml version="1.0" encoding="utf-8"?>
<!-- Generator: Adobe Illustrator 26.0.2, SVG Export Plug-In . SVG Version: 6.00 Build 0)  -->
<svg version="1.1" id="Warstwa_1" xmlns="http://www.w3.org/2000/svg" xmlns:xlink="http://www.w3.org/1999/xlink" x="0px" y="0px"
	 viewBox="0 0 430 430" style="enable-background:new 0 0 430 430;" xml:space="preserve">
<style type="text/css">
	.st0{fill:url(#SVGID_1_);}
	.st1{fill:url(#SVGID_00000024708093570407349670000001504994205525231264_);}
	.st2{fill:url(#SVGID_00000015342539039258354630000016212184458971397774_);}
	.st3{fill:url(#SVGID_00000021097290673116988440000017118156968475665834_);}
	.st4{fill:url(#SVGID_00000060743639943714302100000000751617387536119689_);}
	.st5{fill:url(#SVGID_00000026155931485009478390000009227188343421474707_);}
	.st6{fill:url(#SVGID_00000099626803754027376090000013585257617195023497_);}
	.st7{fill:url(#SVGID_00000134949902120789178820000004361924986507541171_);}
	.st8{fill:url(#SVGID_00000080925128889185998820000000209875140229975959_);}
	.st9{fill:url(#SVGID_00000071529896818983176820000006802133319441769606_);}
	.st10{fill:url(#SVGID_00000124120557797142185750000001359887028967912609_);}
	.st11{fill:url(#SVGID_00000137094131177348000340000004006948769983895696_);}
	.st12{fill:url(#SVGID_00000120517230970187403690000012621842258661671047_);}
	.st13{fill:url(#SVGID_00000129920036156650808270000017587314726203179678_);}
	.st14{fill:url(#SVGID_00000165950249556655056530000010961961101416128184_);}
	.st15{fill:url(#SVGID_00000065792064988527875340000008501082945415366838_);}
	.st16{fill:url(#SVGID_00000048460660329046171540000018362473075412558994_);}
	.st17{fill:url(#SVGID_00000105403862472414289140000014920430835292775321_);}
	.st18{fill:url(#SVGID_00000170248116908624359490000008137874926893613749_);}
	.st19{fill:url(#SVGID_00000063628175156991050400000012841588481562390688_);}
	.st20{fill:url(#SVGID_00000135682988149700688040000006788832551797242260_);}
	.st21{fill:url(#SVGID_00000152984900700985826650000002502873778334567602_);}
	.st22{fill:url(#SVGID_00000048497643524242890220000016657072778785480068_);}
</style>
<linearGradient id="SVGID_1_" gradientUnits="userSpaceOnUse" x1="87.9439" y1="79.376" x2="322.8725" y2="314.3046">
	<stop  offset="0" style="stop-color:#242424"/>
	<stop  offset="1" style="stop-color:#848484"/>
</linearGradient>
<path class="st0" d="M367.95,221.25c6.23-4.22,10.64-10.66,10.64-18.51v-6.57c0-11.54-7.12-21.05-17.19-24.23
	c3.36-3.94,5.49-8.88,5.49-14.54v-3.46c0-11.8-7.43-21.18-18.07-23.95c2.01-3.01,3.23-6.72,3.03-11.23
	c-0.49-11.46-9.43-20.54-20.85-21.22c-0.25-0.03-0.59-0.06-0.99-0.06h-92.26c-10.9,0-21.54,2.16-31.61,6.41
	c-3.26,1.38-6.7,2.93-10.22,4.62c-3.61,1.73-6.35,3.24-8.54,4.45c-7.88,4.34-10.17,5.59-35.78,5.74v-0.1c0-3.31-2.69-6-6-6H57.22
	c-3.31,0-6,2.69-6,6v154.44c0,3.31,2.69,6,6,6h88.38c3.31,0,6-2.69,6-6v-12.36h20.02c4.69,1.05,35.44,9.14,53.34,43.66
	c2.56,4.94,3.91,10.55,3.91,16.21l-0.06,36.8c0,0.05,0,0.09,0,0.14c0.12,5.64,4.69,16.52,21.07,17.3c0.41,0.02,0.81,0.03,1.22,0.03
	c6.92,0,13.61-2.82,19.42-8.2c7.53-6.97,12.56-17.5,12.83-26.81c0.33-11.49,0.02-57.65,0-59.61c0-0.22-0.01-0.44-0.04-0.65
	c0-0.02-0.12-2.55,1.79-4.7c2.38-2.67,7.17-4.09,13.85-4.09h54.23c14.16,0,25.69-11.47,25.69-25.56v-3.84
	C378.88,233.81,374.42,226.35,367.95,221.25z M139.6,267.02H63.22V124.58h76.38v0.12v129.96V267.02z M366.88,245.18
	c0,7.35-6.27,13.56-13.69,13.56h-54.23c-10.35,0-18.02,2.73-22.81,8.11c-4.93,5.53-4.91,11.83-4.79,13.63
	c0.02,3.52,0.31,48.08,0,58.97c-0.17,6.06-3.87,13.61-8.99,18.35c-2.6,2.41-6.79,5.23-11.91,4.99c-8.33-0.4-9.49-4.32-9.64-5.66
	l0.06-36.59c0-7.59-1.82-15.11-5.26-21.74c-20.85-40.2-57.65-49.06-61.79-49.94c-0.63-0.13-1.27-0.2-1.91-0.2H151.6V130.69
	c27.65-0.18,31.6-1.74,41.57-7.23c2.17-1.2,4.64-2.55,7.95-4.14c3.35-1.61,6.61-3.08,9.7-4.39c8.58-3.62,17.64-5.46,26.94-5.46h92
	c0.13,0.02,0.27,0.03,0.4,0.03c5.31,0.26,9.48,4.45,9.7,9.76c0.33,7.83-11.23,9.7-11.7,9.77c-3.1,0.45-5.33,3.2-5.13,6.33
	c0.2,3.12,2.77,5.57,5.9,5.61l13.16,0.18c7.41,0,12.78,5.38,12.78,12.78v3.46c0,6.98-7.49,12.16-14.49,12.62
	c-1.66,0.11-3.2,0.94-4.25,2.22c-1.05,1.29-1.52,2.99-1.29,4.64c0.39,2.85,2.74,5.02,5.61,5.18l13.13,0.73
	c0.11,0.01,0.22,0.01,0.33,0.01c7.22,0,12.66,5.75,12.66,13.37v6.57c0,6.85-8.65,11.96-16.38,11.96c-3.31,0-6,2.69-6,6s2.69,6,6,6
	c7.95,0,16.68,7.66,16.68,14.64V245.18z"/>
</svg>
