<?xml version="1.0" encoding="utf-8"?>
<!-- Generator: Adobe Illustrator 24.1.2, SVG Export Plug-In . SVG Version: 6.00 Build 0)  -->
<svg version="1.1" id="Capa_1" xmlns="http://www.w3.org/2000/svg" xmlns:xlink="http://www.w3.org/1999/xlink" x="0px" y="0px"
	 width="100px" height="100px" viewBox="0 0 100 100" style="enable-background:new 0 0 100 100;" xml:space="preserve">
<g>
	<path d="M66,16.2c-3.9-0.4-6.1-1.1-8.4-1.8c-2.8-0.9-5.8-1.7-11.7-2.2V9.6l0,0c0-0.1,0-0.1,0-0.2c0-4.5-13.6-4.5-13.6,0
		c0,0.1,0,0.2,0.1,0.4v2.6c-4.4,1.5-4.2,6.3-4,9.6c0.1,1.3,0.1,2.6,0,3.5c-0.6,3.2-7.5,18.8-10.1,24.6l-0.1,25.6
		c0,6.9,5,18.4,10.2,18.4h39.5C78.5,94.1,82,78.8,82,74.7V37.8C81.9,18.8,66.2,16.2,66,16.2z M39.1,7.9c0.2,0,0.3,0,0.5,0
		c2,0.1,3.4,0.7,4.1,1.3c-0.8,0.6-2.4,1.3-4.6,1.3c-2.2,0-3.8-0.7-4.6-1.3C35.4,8.6,37,7.9,39.1,7.9z M79.3,74.7
		c0,4-3.5,16.8-11.5,16.8H28.3c-2.8,0-7.6-9-7.6-15.8V50.8c1.1-2.5,9.3-20.9,10.1-24.9c0.2-1.2,0.2-2.7,0.1-4.2
		c-0.2-3.5-0.1-5.6,1.4-6.6c0.2,2.1,3.5,3,6.8,3s6.5-0.9,6.8-3l0,0v-0.4c5.5,0.5,8.3,1.3,11,2.1c2.3,0.7,4.8,1.4,8.8,1.9
		c0.6,0.1,13.6,2.2,13.6,19L79.3,74.7L79.3,74.7L79.3,74.7z"/>
</g>
</svg>
