<?xml version="1.0" encoding="utf-8"?>
<!-- Generator: Adobe Illustrator 24.1.2, SVG Export Plug-In . SVG Version: 6.00 Build 0)  -->
<svg version="1.1" id="Capa_1" xmlns="http://www.w3.org/2000/svg" xmlns:xlink="http://www.w3.org/1999/xlink" x="0px" y="0px"
	 width="100px" height="100px" viewBox="0 0 100 100" style="enable-background:new 0 0 100 100;" xml:space="preserve">
<path d="M66,16.2c-3.9-0.4-6.1-1.1-8.4-1.8c-2.8-0.9-5.8-1.7-11.7-2.2V9.6l0,0c0-0.1,0-0.1,0-0.2c0-4.5-13.6-4.5-13.6,0
	c0,0.1,0,0.2,0.1,0.4v2.6c-2,0.7-3,2-3.5,3.5l0,0l0,0c-0.7,1.9-0.6,4.2-0.5,6c0.1,1.3,0.1,2.6,0,3.5c-0.6,3.2-7.5,18.8-10.1,24.6
	l-0.1,25.6c0,6.9,5,18.4,10.2,18.4h1.5h12.8h25.2c1,0,2-0.1,2.9-0.4l0,0l0,0c8.4-2.4,11.2-15.3,11.2-19V37.8
	C81.9,18.8,66.2,16.2,66,16.2z M46.2,14.8h-0.3l0,0C46,14.8,46.1,14.8,46.2,14.8z M39.1,7.9c0.2,0,0.3,0,0.5,0
	c2,0.1,3.4,0.7,4.1,1.3c-0.8,0.6-2.4,1.3-4.6,1.3c-2.2,0-3.8-0.7-4.6-1.3C35.4,8.6,37,7.9,39.1,7.9z"/>
</svg>
