<?xml version="1.0" encoding="utf-8"?>
<!-- Generator: Adobe Illustrator 24.1.2, SVG Export Plug-In . SVG Version: 6.00 Build 0)  -->
<svg version="1.1" id="Layer_1" xmlns="http://www.w3.org/2000/svg" xmlns:xlink="http://www.w3.org/1999/xlink" x="0px" y="0px"
	 width="80px" height="80px" viewBox="0 0 80 80" style="enable-background:new 0 0 80 80;" xml:space="preserve">
<style type="text/css">
	.st0{fill:#EEEAEB;}
	.st1{fill:#C72944;}
</style>
<g>
	<path class="st0" d="M42.965,37.688c-0.404,0.539-0.919,0.4-1.395,0.174c-1.586-0.752-3.015-1.764-4.385-2.845
		c-1.891-1.492-3.627-3.147-5.028-5.13c-1.736-2.455-2.88-5.093-2.575-8.181c0.168-1.703,0.664-3.307,1.779-4.64
		c0.959-1.147,2.208-1.872,3.673-2.195c2.361-0.521,4.586-0.14,6.677,1.052c0.241,0.137,0.439,0.205,0.686,0.047
		c1.055-0.676,2.275-0.995,3.466-1.058c1.383-0.072,2.846-0.282,4.163,0.468c0.174,0.099,0.388,0.151,0.462,0.375
		c-0.033,0.13-0.057,0.264-0.101,0.391c-1.723,4.971-3.458,9.937-5.168,14.913C44.458,33.266,43.616,35.445,42.965,37.688z"/>
	<path class="st1" d="M40.005,46.102c5.599-0.018,11.198-0.038,16.797-0.047c0.339-0.001,0.526-0.095,0.667-0.425
		c2.341-5.471,4.696-10.935,7.046-16.402c0.034-0.08,0.044-0.17,0.07-0.277c-0.197-0.135-0.404-0.077-0.594-0.079
		c-1.684-0.012-3.369-0.02-5.053-0.019c-0.32,0-0.569-0.019-0.623-0.43c-0.175-1.33-0.37-2.657-0.57-3.983
		c-0.047-0.313,0.068-0.391,0.362-0.389c3.528,0.025,7.056,0.046,10.584,0.055c0.434,0.001,0.631,0.326,0.894,0.556
		c0.478,0.416,1.165,0.789,1.329,1.316c0.167,0.536-0.377,1.165-0.623,1.747c-2.968,7.03-5.955,14.053-8.906,21.09
		c-0.376,0.898-1.135,1.394-1.756,2.042c-0.14,0.146-0.333,0.122-0.515,0.121c-6.919-0.042-13.838-0.085-20.756-0.127
		C38.907,49.267,39.456,47.684,40.005,46.102z"/>
	<path class="st0" d="M40.005,46.102c-0.549,1.583-1.098,3.165-1.647,4.748c-2.572,0.006-5.144,0.011-7.715,0.022
		c-0.258,0.001-0.527-0.004-0.709-0.184c-0.617-0.61-1.31-1.084-1.572-2.06c-0.757-2.821-1.675-5.599-2.529-8.394
		c-1.675-5.482-3.35-10.965-5.025-16.447c-0.404-1.321-0.82-2.639-1.199-3.968c-0.13-0.456-0.459-0.367-0.76-0.367
		c-2.936-0.005-5.872-0.013-8.808,0.007c-0.531,0.004-0.805-0.017-0.699-0.7c0.176-1.13-0.333-2.226-0.283-3.375
		c0.029-0.66,0.138-0.924,0.864-0.877c3.313,0.214,6.633,0.116,9.951,0.169c0.852,0.014,1.696,0.233,2.553,0.313
		c0.581,0.054,0.887,0.722,1.07,1.298c0.748,2.355,1.492,4.711,2.225,7.07c0.76,2.445,1.504,4.896,2.257,7.343
		c1.46,4.743,2.922,9.485,4.384,14.227c0.06,0.195,0.166,0.381,0.197,0.579c0.077,0.493,0.372,0.584,0.824,0.582
		C35.591,46.075,37.798,46.094,40.005,46.102z"/>
	<path class="st1" d="M42.965,37.688c0.651-2.243,1.493-4.422,2.251-6.629c1.71-4.975,3.445-9.942,5.168-14.913
		c0.044-0.127,0.068-0.26,0.101-0.391c1.871,0.663,3.734,3.323,3.825,5.483c0.157,3.726-1.101,6.963-3.47,9.787
		C48.6,33.695,46.005,35.958,42.965,37.688z"/>
	<path class="st0" d="M28.698,65.482c-1.96,0.202-4.21-1.536-4.172-4.114c0.034-2.353,1.737-4.228,3.848-4.222
		c2.725,0.008,4.383,1.608,4.516,4.06C33.019,63.56,30.806,65.719,28.698,65.482z"/>
	<path class="st1" d="M64.145,61.291c0.01,2.301-1.849,4.181-4.142,4.191c-2.299,0.01-4.181-1.85-4.191-4.143
		c-0.01-2.298,1.851-4.181,4.143-4.191C62.255,57.139,64.135,58.998,64.145,61.291z"/>
</g>
</svg>
