<?xml version="1.0" encoding="utf-8"?>
<!-- Generator: Adobe Illustrator 24.1.2, SVG Export Plug-In . SVG Version: 6.00 Build 0)  -->
<svg version="1.1" id="Layer_1" xmlns="http://www.w3.org/2000/svg" xmlns:xlink="http://www.w3.org/1999/xlink" x="0px" y="0px"
	 width="60px" height="60px" viewBox="0 0 60 60" style="enable-background:new 0 0 60 60;" xml:space="preserve">
<style type="text/css">
	.st0{fill:#C7C4C5;}
</style>
<g>
	<g>
		<path class="st0" d="M39.367,18.627c-1.146,0-2.074,0.929-2.074,2.074c0,1.146,0.929,2.074,2.074,2.074
			c1.146,0,2.074-0.929,2.074-2.074C41.441,19.555,40.513,18.627,39.367,18.627z"/>
		<path class="st0" d="M30.145,21.287c-4.805,0-8.714,3.909-8.714,8.713s3.909,8.713,8.714,8.713c4.804,0,8.713-3.909,8.713-8.713
			C38.859,25.195,34.95,21.287,30.145,21.287z M30.145,35.582c-3.078,0-5.582-2.504-5.582-5.582s2.504-5.581,5.582-5.581
			s5.581,2.504,5.581,5.581S33.223,35.582,30.145,35.582z"/>
		<path class="st0" d="M37.063,47.691H22.937c-5.86,0-10.628-4.767-10.628-10.627V22.937c0-5.86,4.767-10.628,10.628-10.628h14.126
			c5.86,0,10.628,4.767,10.628,10.628v14.127C47.691,42.923,42.923,47.691,37.063,47.691z M22.937,15.638
			c-4.025,0-7.299,3.274-7.299,7.299v14.127c0,4.025,3.274,7.299,7.299,7.299h14.126c4.025,0,7.299-3.274,7.299-7.299V22.937
			c0-4.025-3.275-7.299-7.299-7.299C37.063,15.638,22.937,15.638,22.937,15.638z"/>
	</g>
</g>
</svg>
