<?xml version="1.0" encoding="utf-8"?>
<!-- Generator: Adobe Illustrator 24.1.2, SVG Export Plug-In . SVG Version: 6.00 Build 0)  -->
<svg version="1.1" id="Layer_1" xmlns="http://www.w3.org/2000/svg" xmlns:xlink="http://www.w3.org/1999/xlink" x="0px" y="0px"
	 width="200px" height="100px" viewBox="0 0 200 100" style="enable-background:new 0 0 200 100;" xml:space="preserve">
<style type="text/css">
	.st0{fill:#C7C4C5;}
	.st1{fill:#CAC8C8;}
	.st2{fill:#C52B46;}
	.st3{fill:#383636;}
	.st4{fill:#C9C7C7;}
</style>
<g>
	<g>
		<path class="st0" d="M49.7,33.1c0.4,0,0.7,0,0.9,0c1.9,0,3.7,0,5.6,0c1,0,1.8,0.3,2.4,1.1c0.6,0.9,0.8,1.9,0.5,2.9
			c-0.6,2.1-1.2,4.2-1.9,6.3c-0.3,1-1,1.6-2,2.2c0.1,0.1,0.2,0.2,0.3,0.3c0.4,0.5,0.6,1.1,0.4,1.8c-0.7,2.3-1.3,4.6-2,6.9
			c-0.4,1.2-1.1,2.2-2.2,2.9c-0.7,0.4-1.4,0.7-2.2,0.6c-2.1,0-4.3,0-6.4,0c-0.5,0-0.9,0.1-1,0.7c-0.2,0.6-0.4,1.2-0.6,1.9
			c-0.3,1.1-0.8,1.5-1.9,1.5c-7.6,0-15.3,0-22.9,0c-0.4,0-0.9,0.1-1.3,0.1c-0.2,0-0.4,0-0.6,0c-1.1,0-1.7-0.7-1.4-1.8
			c0.4-1.6,0.9-3.1,1.4-4.7c0.6-1.9,1.1-3.7,1.7-5.6c0.5-1.6,1-3.2,1.5-4.8c0.7-2.4,1.4-4.9,2.2-7.3c0.4-1.3,0.8-2.6,1.2-3.9
			c0.4-1.3,0.8-2.6,1.2-3.8c0.2-0.8,0.9-1.6,2-1.6c8.1,0,16.1,0,24.2,0c0.3,0,0.7,0,0.9,0.1c0.5,0.3,0.8,0.7,0.7,1.3
			c-0.1,0.6-0.2,1.1-0.3,1.7C50,32.2,49.9,32.6,49.7,33.1z M26.8,61.7c0.1,0,0.3,0,0.4,0c4.1,0,8.2,0,12.4,0c0.2,0,0.3,0,0.5,0
			c0.5,0,0.9-0.3,1-0.8c0.2-0.7,0.4-1.4,0.6-2.1c0.1-0.2,0.1-0.4,0.1-0.7c-1.3,0-2.6,0-3.8,0c-1.3,0-2.5,0-3.8,0
			c-1.2,0-2.4,0.1-3.7,0c0.1-0.3,0.1-0.4,0.2-0.6c2.3-7.9,4.6-15.7,6.9-23.6c0.2-0.8,0.2-0.8,1.1-0.8c3.2,0,6.5,0,9.7,0
			c0.3,0,0.6,0,1,0c0.3-0.9,0.5-1.7,0.7-2.6s-0.1-1.3-1-1.4c-0.2,0-0.3,0-0.5,0c-7.9,0-15.7,0-23.6,0c-0.3,0-0.6,0.1-0.8,0.1
			c-0.8,0.3-0.9,1-1.1,1.7c-2.8,9.1-5.6,18.2-8.3,27.4c-0.2,0.8-0.5,1.5-0.7,2.3c-0.2,0.7,0.1,1.2,0.9,1.2c0.1,0,0.3,0,0.4,0
			c3.5,0,7.1,0,10.6,0C26.2,61.8,26.5,61.7,26.8,61.7z M44.9,47.8c-1.4,0-2.6,0-3.8,0c-0.3,0-0.5,0.2-0.5,0.4
			c-0.2,0.6-0.3,1.2-0.5,1.7c-0.2,0.6-0.3,1.2-0.5,1.9c1.3,0,2.6,0,3.8,0c0.3,0,0.5-0.1,0.5-0.4C44.2,50.3,44.6,49.2,44.9,47.8z
			 M41.9,43.3c1.5,0,2.9,0,4.4,0c0.4-1.2,0.7-2.5,1.1-3.8c-1.5,0-2.8,0-4.2,0C42.7,40.7,42.3,42,41.9,43.3z M48.7,47.9
			c-1,0-2,0-2.9,0c-0.3,0-0.4,0.2-0.5,0.5c-0.2,0.7-0.4,1.4-0.6,2.1c-0.1,0.4-0.2,0.8-0.3,1.3c1,0,1.8,0,2.7,0
			c0.5,0,0.7-0.2,0.8-0.6c0.3-0.9,0.5-1.9,0.8-2.8C48.7,48.4,48.7,48.2,48.7,47.9z M46.7,43.4c1.1,0,2,0,2.9,0
			c0.2,0,0.5-0.2,0.6-0.4c0.4-1.1,0.8-2.3,1.2-3.5c-1.2,0-2.3,0-3.4,0C47.5,40.8,47.1,42,46.7,43.4z"/>
		<path class="st1" d="M86.9,58.3c0.3-1,0.5-1.9,0.7-2.8c0.3-1,0.6-2,0.9-3c0.1-0.4,0.4-0.7,0.7-1c2.3-1.8,4.7-3.6,7-5.4
			c1.3-1,2.7-2,4-3c1.5-1.1,3-2.3,4.6-3.6c-4.2,0-8.3,0-12.4,0c0.1-0.4,0.1-0.6,0.2-0.8c0.5-1.6,0.9-3.2,1.4-4.8
			c0.1-0.5,0.4-0.6,0.8-0.6c7.1,0,14.3,0,21.4,0c0.1,0,0.3,0,0.5,0c0,0.3,0,0.5-0.1,0.7c-0.5,1.7-0.9,3.4-1.5,5.1
			c-0.1,0.5-0.5,0.9-0.9,1.2c-0.8,0.8-1.7,1.5-2.5,2.2c-1.6,1.5-3.2,3-4.9,4.5c-1.5,1.4-3,2.7-4.5,4c-0.3,0.2-0.5,0.5-0.9,0.9
			c3.4,0,6.6,0,9.9,0c-0.2,0.8-0.4,1.5-0.6,2.2c-0.3,1.1-0.7,2.2-1,3.3c-0.3,0.9-0.3,0.9-1.2,0.9c-7,0-13.9,0-20.9,0
			C87.5,58.3,87.3,58.3,86.9,58.3z"/>
		<path class="st1" d="M149,46.9c-1.6,0-3.1,0-4.5,0c-0.3,0-0.5,0.2-0.6,0.5c-0.8,2.4-1.6,4.7-2.3,7.1c-0.3,1-0.6,1.9-0.9,2.9
			c-0.3,0.8-0.5,0.9-1.2,0.9c-1.8,0-3.7,0-5.5,0c-0.8,0-1-0.3-0.7-1c1.2-3.7,2.4-7.4,3.6-11.1c0.9-2.7,1.8-5.4,2.6-8.2
			c0.4-1.4,0.9-2.7,1.3-4.1c0.1-0.4,0.4-0.7,0.8-0.7c2.2,0,4.3,0,6.5,0c0.1,0,0.1,0,0.2,0.1c0.3,0.4,0,0.7-0.1,1
			c-0.7,2.2-1.5,4.5-2.2,6.7c-0.1,0.2-0.1,0.3-0.2,0.6c0.3,0,0.5,0,0.7,0c1.1-0.3,2.2-0.8,3.4-1s2.5-0.1,3.7-0.1
			c0.3,0,0.7,0.1,1,0.2c2.2,0.6,2.9,2.1,2.4,4.2c-0.5,2.1-1.2,4.1-1.8,6.1c-0.1,0.2-0.1,0.5-0.2,0.8c0.4,0.1,0.7,0.1,1.1,0.2
			c0,0.4,0,0.7-0.1,1c-0.5,1.5-1,2.9-1.4,4.4c-0.3,0.8-0.5,0.9-1.3,0.9c-2.1,0-4.3,0-6.4,0c-0.2,0-0.3,0-0.5,0
			c-0.5-0.1-0.7-0.4-0.5-0.9c0.2-0.6,0.4-1.1,0.6-1.7c0.8-2.5,1.6-5,2.4-7.5C148.9,47.8,148.9,47.4,149,46.9z"/>
		<path class="st1" d="M128.2,41.7C128.3,41.6,128.3,41.6,128.2,41.7c0.4-1.1,1.1-1.2,2-1.2c1.7,0.1,3.3,0,5,0c0.9,0,1,0.2,0.7,1
			c-1,3.1-2,6.1-3.1,9.2c-0.1,0.3-0.2,0.6-0.3,1c0.3,0.1,0.5,0.1,0.8,0.2c0,0.1,0.1,0.1,0.1,0.2c0,0.3-0.1,0.6-0.2,0.8
			c-0.4,1.4-0.9,2.7-1.4,4.1c-0.3,0.8-0.7,1.2-1.6,1.2c-5,0-10,0-15,0c-0.8,0-1.6-0.2-2.3-0.6c-0.8-0.4-1.2-1.1-1.3-2
			c0-0.8,0-1.6,0.3-2.3c0.9-2.9,1.8-5.8,2.8-8.7c0.2-0.6,0.6-1.3,0.9-1.8c0.8-1.3,2-2,3.6-2.3c2-0.3,4.1-0.1,6.1-0.1
			c0.3,0,0.7,0.2,1,0.4C127.1,41.2,127.7,41.4,128.2,41.7z M126.7,46.8c-1.5,0-2.8,0-4.2,0c-0.6,0-0.9,0.4-1.1,0.9
			c-0.3,1-0.7,2.1-1,3.1c-0.2,0.8-0.1,1,0.7,1.1c1.2,0,2.3,0,3.5,0c0.4,0,0.6-0.1,0.7-0.6c0.4-1.3,0.8-2.5,1.2-3.8
			C126.6,47.4,126.6,47.2,126.7,46.8z"/>
		<path class="st1" d="M65.4,58c0.1-0.3,0.1-0.6,0.2-0.9c0.6-1.8,1.2-3.7,1.8-5.5c0.5-1.5,1-3,1.4-4.6c-0.1-0.1-0.1-0.1-0.2-0.1
			c-0.9-0.2-1-0.3-0.7-1.1c0.5-1.5,1-3,1.5-4.6c0.2-0.7,0.3-0.7,1-0.7c2.3,0,4.6,0,6.8,0c0.8,0,0.9,0.1,0.8,1c0,0,0,0.1,0.1,0.2
			c0.2,0,0.5,0,0.8-0.1c0.9-0.3,1.9-0.6,2.8-0.9c0.5-0.1,1-0.2,1.4-0.2c1.2,0,2.4,0,3.6,0.2c1,0.1,1.9,0.4,2.4,1.4
			c0.2,0.4,0.3,0.9,0.4,1.4c0.2,1.5-0.3,2.8-0.7,4.2c-0.7,2.3-1.5,4.6-2.3,6.9c-0.3,0.8-0.5,1.6-0.8,2.5s-0.4,1-1.4,1
			c-1.8,0-3.6,0-5.4,0c-0.1,0-0.2,0-0.3,0c-0.7,0-0.9-0.2-0.7-0.9c0.2-0.7,0.4-1.4,0.7-2c0.8-2.3,1.5-4.6,2.3-6.8
			c0.1-0.2,0.1-0.3,0.2-0.5c0.2-0.7,0-1-0.7-1c-1.1,0-2.2,0-3.3,0c-0.7,0-0.7,0-1,0.7c-0.7,2.3-1.5,4.5-2.2,6.8
			c-0.3,1-0.7,2.1-1,3.1c-0.1,0.4-0.4,0.7-0.9,0.7c-2.1,0-4.2,0-6.3,0C65.8,58.1,65.7,58.1,65.4,58z"/>
		<path class="st1" d="M165.4,50.7c-0.4,0.9-0.2,1.2,0.7,1.2c2.7,0,5.5,0,8.2,0c0.3,0,0.6,0,1,0c-0.1,0.4-0.2,0.7-0.3,1
			c-0.4,1.4-0.9,2.8-1.3,4.2c-0.3,1-0.6,1.2-1.6,1.2c-3.9,0-7.8,0-11.7,0c-0.9,0-1.8-0.2-2.5-0.7c-0.8-0.5-1.2-1.2-1.3-2.1
			c-0.1-1.1,0.2-2.2,0.5-3.2c0.7-2.2,1.4-4.4,2.2-6.6c0.3-0.9,0.8-1.8,1.3-2.7c0.8-1.5,2.3-2.2,3.9-2.3c3.8-0.4,7.6-0.2,11.4-0.2
			c1,0,2,0.3,2.8,1.1s1,1.8,0.8,2.8c-0.4,1.6-0.9,3.2-1.5,4.8c-0.4,1.1-1,1.5-2.2,1.5c-3.2,0-6.3,0-9.5,0
			C166,50.7,165.7,50.7,165.4,50.7z M174.8,45c-0.8,0-1.4,0-1.9,0c-1.9,0-3.8,0-5.7,0c-0.3,0-0.6,0-0.8,0.4
			c-0.2,0.7-0.5,1.4-0.7,2.2c0.4,0,0.7,0,0.9,0c1,0,2,0,3,0c1.2,0,2.5,0,3.7,0c0.2,0,0.6-0.1,0.6-0.3
			C174.3,46.6,174.5,45.9,174.8,45z"/>
		<path class="st1" d="M180.6,47c-0.9-0.3-1-0.4-0.7-1.3c0.5-1.4,0.9-2.8,1.4-4.2c0.3-0.8,0.5-1,1.3-1c2.2,0,4.4,0,6.6,0
			c0.2,0,0.4,0,0.7,0.1c0,0.4,0,0.8,0,1.2c0.6-0.3,1.2-0.5,1.7-0.7c0.8-0.4,1.5-0.6,2.4-0.6s1.8,0,2.8,0c0.5,0,1,0.1,1.5,0.2
			c1.3,0.3,1.9,1.3,1.6,2.6c-0.6,2.2-1.4,4.4-2.1,6.6c-0.1,0.5-0.3,0.9-0.5,1.4c-0.1,0.4-0.4,0.7-0.9,0.7c-2.1,0-4.1,0-6.2,0
			c-0.2-0.4-0.1-0.8,0-1.1c0.3-1,0.6-2,1-2.9c0.2-0.7,0.1-0.9-0.7-0.9c-0.6,0-1.3,0-1.9,0c-0.1,0-0.2,0-0.3,0.1
			c-0.4,1.2-0.9,2.5-1.3,3.8c-0.7,2.1-1.4,4.2-2.1,6.4c-0.3,0.8-0.7,1.2-1.6,1.2c-1.8-0.1-3.5,0-5.3,0c-0.9,0-1.1-0.2-0.8-1.1
			c1-3.1,2-6.3,3-9.4C180.4,47.6,180.5,47.3,180.6,47z"/>
		<path class="st1" d="M55.2,58c1.2-3.8,2.4-7.3,3.5-10.9c-1.2-0.4-1.2-0.4-0.8-1.5c0.5-1.5,1-2.9,1.5-4.4c0.1-0.4,0.4-0.7,0.9-0.7
			c2.5,0,5.1,0,7.6,0c0.1,0,0.2,0,0.3,0.1c0.2,0.4,0.1,0.8-0.1,1.2c-1.2,3.8-2.5,7.6-3.7,11.3c-0.4,1.3-0.9,2.7-1.3,4
			c-0.3,1-0.4,1-1.4,1c-1.8,0-3.6,0-5.4,0C55.9,58.1,55.6,58.1,55.2,58z"/>
		<path class="st1" d="M70.7,33.3c0,0.3,0,0.6-0.1,0.8c-0.4,1.3-0.8,2.6-1.3,3.8c-0.2,0.6-0.4,0.8-1.1,0.8c-1.9,0-3.9,0-5.8,0
			c-0.7,0-0.8-0.2-0.6-0.9c0.4-1.3,0.8-2.6,1.3-3.8c0.2-0.7,0.3-0.8,1-0.8c2,0,4,0,6,0C70.2,33.3,70.4,33.3,70.7,33.3z"/>
		<path class="st1" d="M178.6,70.3c-0.1,0.5-0.3,0.6-0.8,0.6c-0.3,0-0.6,0-1,0"/>
		<path class="st1" d="M172.6,70.9c-0.5,0-1,0-1.6,0"/>
		<path class="st2" d="M26.8,61.7c1.2-4.1,2.4-8.2,3.7-12.3c1.5-5.2,3.1-10.4,4.6-15.6c0.4-1.5,0.9-2.9,1.4-4.5
			c-4.2-0.1-8.3,0-12.4,0c0.3,0,0.6-0.1,0.8-0.1c7.9,0,15.7,0,23.6,0c0.2,0,0.3,0,0.5,0c0.9,0.1,1.2,0.6,1,1.4s-0.5,1.7-0.7,2.6
			c-0.3,0-0.6,0-1,0c-3.2,0-6.5,0-9.7,0c-0.8,0-0.8,0-1.1,0.8c-2.3,7.9-4.6,15.7-6.9,23.6c0,0.2-0.1,0.3-0.2,0.6
			c1.3,0.1,2.5,0,3.7,0c1.3,0,2.5,0,3.8,0c1.2,0,2.5,0,3.8,0c-0.1,0.3-0.1,0.5-0.1,0.7c-0.2,0.7-0.4,1.4-0.6,2.1
			c-0.1,0.5-0.5,0.8-1,0.8c-0.2,0-0.3,0-0.5,0c-4.1,0-8.2,0-12.4,0C27.1,61.7,26.9,61.7,26.8,61.7z"/>
		<path class="st2" d="M44.9,47.8c-0.4,1.3-0.7,2.5-1.1,3.6c-0.1,0.3-0.2,0.4-0.5,0.4c-1.2,0-2.5,0-3.8,0c0.2-0.7,0.4-1.3,0.5-1.9
			c0.2-0.6,0.4-1.2,0.5-1.7c0.1-0.3,0.2-0.4,0.5-0.4C42.3,47.8,43.6,47.8,44.9,47.8z"/>
		<path class="st2" d="M41.9,43.3c0.4-1.3,0.8-2.5,1.2-3.8c1.4,0,2.8,0,4.2,0c-0.4,1.3-0.7,2.5-1.1,3.8
			C44.8,43.3,43.4,43.3,41.9,43.3z"/>
		<path class="st3" d="M26.9,61.7c-0.3,0-0.6,0.1-0.9,0.1c-3.6,0-7.1,0-10.7,0c-0.1,0-0.3,0-0.4,0c-0.8,0-1.1-0.5-0.9-1.2
			c0.2-0.8,0.4-1.6,0.7-2.3c2.8-9.2,5.6-18.3,8.4-27.5c0.2-0.6,0.3-1.4,1.1-1.7c4.1,0,8.3,0,12.5,0c-0.5,1.6-0.9,3.1-1.4,4.5
			c-1.6,5.2-3.1,10.4-4.7,15.7C29.4,53.5,28.1,57.6,26.9,61.7z"/>
	</g>
	<g>
		<path class="st4" d="M96.2,69.5h-1.8l2.9-7.9h1.8L96.2,69.5z"/>
		<path class="st4" d="M100.7,69.5l1.3-3.6c0-0.1,0-0.1,0.1-0.2v-0.1c0-0.2,0-0.3,0-0.4s-0.1-0.1-0.3-0.1c-0.1,0-0.3,0-0.4,0.1
			s-0.3,0.2-0.5,0.3c-0.2,0.1-0.3,0.3-0.5,0.5c-0.1,0.2-0.3,0.4-0.4,0.7l-1,2.8h-1.7l2-5.6h0.9c0.2,0,0.3,0,0.4,0.1s0.1,0.2,0.1,0.4
			v0.4c0.4-0.4,0.7-0.6,1.1-0.8c0.4-0.2,0.7-0.3,1.1-0.3c0.2,0,0.4,0,0.6,0.1s0.3,0.2,0.4,0.3s0.1,0.3,0.2,0.5c0,0.2,0,0.5-0.1,0.7
			c0,0.1,0,0.1-0.1,0.2s0,0.1-0.1,0.2l-1.3,3.6h-1.8V69.5z"/>
		<path class="st4" d="M104.3,68.3C104.3,68.3,104.3,68.2,104.3,68.3c0-0.1,0-0.2,0.1-0.2c0-0.1,0.1-0.2,0.1-0.3
			c0-0.1,0.1-0.3,0.2-0.4l0.8-2.3H105c-0.1,0-0.1,0-0.2-0.1c0,0,0-0.1,0-0.2c0,0,0,0,0-0.1s0-0.1,0.1-0.2c0-0.1,0-0.1,0.1-0.2
			c0-0.1,0-0.1,0-0.1l0.1-0.1l0.9-0.2l0.8-1.4c0.1-0.2,0.2-0.3,0.4-0.3h0.9l-0.6,1.6h1.3l-0.4,1.1h-1.3l-0.8,2.2
			c-0.1,0.1-0.1,0.3-0.1,0.3c0,0.1-0.1,0.1-0.1,0.2v0.1l0,0c0,0.1,0,0.2,0,0.3c0,0.1,0.1,0.1,0.2,0.1s0.1,0,0.1,0h0.1h0.1h0.1
			c0.1,0,0.1,0,0.1,0v0.1L107,69c-0.3,0.2-0.5,0.3-0.8,0.4s-0.5,0.1-0.8,0.1c-0.2,0-0.4,0-0.6-0.1s-0.3-0.1-0.4-0.3
			c-0.1-0.1-0.2-0.2-0.2-0.4C104.2,68.7,104.2,68.5,104.3,68.3z"/>
		<path class="st4" d="M113.4,65.3c-0.1,0.3-0.2,0.5-0.3,0.7c-0.2,0.2-0.4,0.4-0.7,0.6c-0.3,0.2-0.7,0.3-1.1,0.4
			c-0.5,0.1-1,0.2-1.7,0.3c-0.1,0.4-0.1,0.7,0,0.8c0.1,0.2,0.3,0.3,0.6,0.3c0.1,0,0.3,0,0.4,0s0.2-0.1,0.3-0.1
			c0.1,0,0.2-0.1,0.2-0.1c0.1,0,0.1-0.1,0.2-0.1s0.1-0.1,0.2-0.1s0.1,0,0.2,0s0.1,0,0.1,0l0.1,0.1l0.3,0.5c-0.2,0.2-0.5,0.4-0.7,0.5
			s-0.4,0.3-0.7,0.4c-0.2,0.1-0.5,0.2-0.7,0.2s-0.5,0.1-0.8,0.1s-0.6-0.1-0.9-0.2s-0.5-0.3-0.6-0.5c-0.2-0.2-0.2-0.5-0.3-0.7
			c0-0.3,0-0.6,0.1-1c0.1-0.3,0.2-0.6,0.3-0.9c0.1-0.3,0.3-0.6,0.5-0.8c0.2-0.3,0.4-0.5,0.6-0.7s0.5-0.4,0.7-0.5
			c0.3-0.2,0.5-0.3,0.8-0.4s0.6-0.1,0.9-0.1s0.6,0,0.8,0.1c0.2,0.1,0.4,0.2,0.5,0.3c0.1,0.1,0.2,0.3,0.3,0.5
			C113.4,64.9,113.4,65.1,113.4,65.3z M111.5,64.9c-0.3,0-0.5,0.1-0.8,0.3c-0.3,0.2-0.5,0.5-0.7,0.9c0.4-0.1,0.7-0.1,0.9-0.2
			c0.2-0.1,0.4-0.1,0.6-0.2c0.1-0.1,0.2-0.1,0.3-0.2c0.1-0.1,0.1-0.2,0.1-0.3c0-0.1,0-0.2,0-0.3C111.7,65,111.6,64.9,111.5,64.9z"/>
		<path class="st4" d="M112.6,69.5l2-5.6h0.9c0.2,0,0.3,0,0.4,0.1s0.1,0.2,0.1,0.4l-0.2,0.6c0.3-0.4,0.6-0.7,0.9-0.9
			c0.3-0.2,0.6-0.3,0.9-0.3c0.2,0,0.3,0,0.4,0.1l-0.7,1.6c-0.2-0.1-0.3-0.1-0.5-0.1c-0.3,0-0.6,0.1-0.8,0.4
			c-0.3,0.3-0.5,0.7-0.8,1.2l-0.9,2.5H112.6z"/>
		<path class="st4" d="M120,69.5l1.3-3.6c0-0.1,0-0.1,0.1-0.2v-0.1c0-0.2,0-0.3,0-0.4s-0.1-0.1-0.3-0.1c-0.1,0-0.3,0-0.4,0.1
			c-0.2,0.1-0.3,0.2-0.5,0.3c-0.2,0.1-0.3,0.3-0.5,0.5c-0.1,0.2-0.3,0.4-0.4,0.7l-1,2.8h-1.6l2-5.6h0.9c0.2,0,0.3,0,0.4,0.1
			s0.1,0.2,0.1,0.4l-0.1,0.4c0.4-0.4,0.7-0.6,1.1-0.8c0.4-0.2,0.7-0.3,1.1-0.3c0.2,0,0.4,0,0.6,0.1s0.3,0.2,0.4,0.3s0.1,0.3,0.2,0.5
			c0,0.2,0,0.5-0.1,0.7c0,0.1,0,0.1-0.1,0.2c0,0.1,0,0.1-0.1,0.2l-1.3,3.6H120V69.5z"/>
		<path class="st4" d="M127.4,69.5h-0.9c-0.1,0-0.2,0-0.3,0c-0.1,0-0.1-0.1-0.1-0.1s0-0.1,0-0.2s0-0.1,0-0.2l0.1-0.4
			c-0.3,0.3-0.6,0.6-1,0.7c-0.3,0.2-0.7,0.3-1,0.3c-0.2,0-0.4,0-0.6-0.1s-0.3-0.2-0.4-0.4c-0.1-0.2-0.2-0.4-0.2-0.6
			c0-0.3,0-0.6,0.1-0.9c0.1-0.5,0.3-1,0.6-1.4c0.3-0.5,0.7-0.9,1.1-1.2c0.4-0.3,0.9-0.6,1.4-0.8c0.5-0.2,1-0.3,1.6-0.3
			c0.3,0,0.5,0,0.8,0.1c0.3,0,0.5,0.1,0.8,0.2L127.4,69.5z M125.2,68.2c0.1,0,0.3,0,0.4-0.1s0.3-0.2,0.4-0.4
			c0.1-0.2,0.3-0.3,0.4-0.6c0.1-0.2,0.3-0.4,0.4-0.7l0.6-1.6h-0.1c-0.3,0-0.5,0.1-0.8,0.2s-0.5,0.3-0.7,0.5s-0.4,0.5-0.6,0.7
			c-0.2,0.3-0.3,0.6-0.4,0.9c0,0.2-0.1,0.3-0.1,0.5c0,0.1,0,0.2,0,0.3c0,0.1,0.1,0.1,0.1,0.2C125,68.2,125.1,68.2,125.2,68.2z"/>
		<path class="st4" d="M129.3,68.3C129.3,68.3,129.3,68.2,129.3,68.3c0-0.1,0-0.2,0.1-0.2c0-0.1,0.1-0.2,0.1-0.3
			c0-0.1,0.1-0.3,0.2-0.4l0.8-2.3H130c-0.1,0-0.1,0-0.2-0.1c0,0,0-0.1,0-0.2c0,0,0,0,0-0.1s0-0.1,0.1-0.2c0-0.1,0-0.1,0.1-0.2
			c0-0.1,0-0.1,0-0.1l0.1-0.1l0.9-0.2l0.8-1.4c0.1-0.2,0.2-0.3,0.4-0.3h0.9l-0.6,1.6h1.3l-0.4,1.1h-1.3l-0.8,2.2
			c-0.1,0.1-0.1,0.3-0.1,0.3c0,0.1-0.1,0.1-0.1,0.2v0.1l0,0c0,0.1,0,0.2,0,0.3c0,0.1,0.1,0.1,0.2,0.1c0.1,0,0.1,0,0.1,0h0.1h0.1h0.1
			c0.1,0,0.1,0,0.1,0v0.1L132,69c-0.3,0.2-0.5,0.3-0.8,0.4s-0.5,0.1-0.8,0.1c-0.2,0-0.4,0-0.6-0.1s-0.3-0.1-0.4-0.3
			c-0.1-0.1-0.2-0.2-0.2-0.4C129.2,68.7,129.2,68.5,129.3,68.3z"/>
		<path class="st4" d="M136.2,63.9l-2,5.6h-1.7l2-5.6H136.2z M136.9,62.3c0,0.1-0.1,0.3-0.2,0.4c-0.1,0.1-0.2,0.2-0.3,0.3
			s-0.2,0.2-0.4,0.2c-0.1,0.1-0.3,0.1-0.4,0.1c-0.1,0-0.2,0-0.3-0.1s-0.2-0.1-0.3-0.2c-0.1-0.1-0.1-0.2-0.1-0.3s0-0.2,0-0.4
			c0-0.1,0.1-0.3,0.2-0.4c0.1-0.1,0.2-0.2,0.3-0.3s0.2-0.2,0.4-0.2s0.3-0.1,0.4-0.1c0.1,0,0.2,0,0.4,0.1c0.1,0.1,0.2,0.1,0.3,0.2
			c0.1,0.1,0.1,0.2,0.1,0.3C136.9,62.1,136.9,62.2,136.9,62.3z"/>
		<path class="st4" d="M137.5,69.6c-0.3,0-0.6-0.1-0.8-0.2s-0.4-0.3-0.6-0.5c-0.2-0.2-0.2-0.4-0.3-0.7c0-0.3,0-0.6,0.1-1
			c0.1-0.5,0.3-1,0.6-1.4s0.6-0.8,0.9-1.1c0.4-0.3,0.7-0.5,1.1-0.7c0.4-0.2,0.8-0.3,1.2-0.3c0.3,0,0.6,0.1,0.8,0.2
			c0.2,0.1,0.4,0.3,0.6,0.5c0.2,0.2,0.3,0.4,0.3,0.7c0,0.3,0,0.6-0.1,1c-0.1,0.5-0.3,0.9-0.6,1.4c-0.3,0.4-0.6,0.8-0.9,1.1
			c-0.4,0.3-0.7,0.5-1.1,0.7C138.3,69.5,137.9,69.6,137.5,69.6z M138,68.3c0.2,0,0.4-0.1,0.5-0.2c0.2-0.1,0.3-0.3,0.5-0.5
			s0.3-0.4,0.4-0.7c0.1-0.3,0.2-0.5,0.3-0.8c0.1-0.4,0.1-0.7,0-0.9c-0.1-0.2-0.2-0.3-0.5-0.3c-0.2,0-0.4,0.1-0.5,0.2
			c-0.2,0.1-0.3,0.3-0.5,0.5s-0.3,0.4-0.4,0.7c-0.1,0.3-0.2,0.5-0.3,0.8c-0.1,0.4-0.1,0.7,0,0.9C137.6,68.2,137.7,68.3,138,68.3z"/>
		<path class="st4" d="M144.2,69.5l1.3-3.6c0-0.1,0-0.1,0.1-0.2v-0.1c0-0.2,0-0.3,0-0.4s-0.1-0.1-0.3-0.1c-0.1,0-0.3,0-0.4,0.1
			s-0.3,0.2-0.5,0.3c-0.2,0.1-0.3,0.3-0.5,0.5c-0.1,0.2-0.3,0.4-0.4,0.7l-1,2.8h-1.7l2-5.6h0.9c0.2,0,0.3,0,0.4,0.1
			c0.1,0.1,0.1,0.2,0.1,0.4l-0.1,0.4c0.4-0.4,0.7-0.6,1.1-0.8c0.4-0.2,0.7-0.3,1.1-0.3c0.2,0,0.4,0,0.6,0.1c0.2,0.1,0.3,0.2,0.4,0.3
			c0.1,0.1,0.1,0.3,0.2,0.5c0,0.2,0,0.5-0.1,0.7c0,0.1,0,0.1-0.1,0.2s0,0.1-0.1,0.2l-1.3,3.6h-1.7V69.5z"/>
		<path class="st4" d="M151.6,69.5h-0.9c-0.1,0-0.2,0-0.3,0s-0.1-0.1-0.1-0.1s0-0.1,0-0.2s0-0.1,0-0.2l0.1-0.4
			c-0.3,0.3-0.6,0.6-1,0.7c-0.3,0.2-0.7,0.3-1,0.3c-0.2,0-0.4,0-0.6-0.1c-0.2-0.1-0.3-0.2-0.4-0.4c-0.1-0.2-0.2-0.4-0.2-0.6
			c0-0.3,0-0.6,0.1-0.9c0.1-0.5,0.3-1,0.6-1.4c0.3-0.5,0.7-0.9,1.1-1.2s0.9-0.6,1.4-0.8c0.5-0.2,1-0.3,1.6-0.3c0.3,0,0.5,0,0.8,0.1
			c0.3,0,0.5,0.1,0.8,0.2L151.6,69.5z M149.4,68.2c0.1,0,0.3,0,0.4-0.1c0.1-0.1,0.3-0.2,0.4-0.4c0.1-0.2,0.3-0.3,0.4-0.6
			c0.1-0.2,0.3-0.4,0.4-0.7l0.6-1.6h-0.1c-0.3,0-0.5,0.1-0.8,0.2s-0.5,0.3-0.7,0.5s-0.4,0.5-0.6,0.7c-0.2,0.3-0.3,0.6-0.4,0.9
			c0,0.2-0.1,0.3-0.1,0.5c0,0.1,0,0.2,0,0.3c0,0.1,0.1,0.1,0.1,0.2C149.3,68.2,149.3,68.2,149.4,68.2z"/>
		<path class="st4" d="M152.7,69.5l3-8.1h1.7l-3,8.1H152.7z"/>
		<path class="st4" d="M164,63.2c-0.1,0.1-0.2,0.1-0.2,0.2c-0.1,0-0.2,0.1-0.2,0.1c-0.1,0-0.2,0-0.2-0.1c-0.1-0.1-0.1-0.1-0.2-0.2
			c-0.1-0.1-0.2-0.1-0.3-0.2c-0.1-0.1-0.3-0.1-0.5-0.1s-0.3,0-0.5,0.1c-0.1,0-0.3,0.1-0.4,0.2c-0.1,0.1-0.2,0.2-0.3,0.3
			s-0.1,0.2-0.2,0.4c0,0.1,0,0.3,0,0.4c0.1,0.1,0.1,0.2,0.3,0.3c0.1,0.1,0.3,0.1,0.4,0.2c0.2,0.1,0.3,0.1,0.5,0.2s0.3,0.2,0.5,0.2
			c0.1,0.1,0.3,0.2,0.4,0.4c0.1,0.1,0.2,0.3,0.2,0.5s0,0.4-0.1,0.7c-0.1,0.4-0.3,0.8-0.5,1.1c-0.2,0.4-0.5,0.7-0.8,0.9
			c-0.3,0.3-0.7,0.5-1.1,0.6c-0.4,0.2-0.8,0.2-1.3,0.2c-0.2,0-0.5,0-0.7-0.1s-0.4-0.1-0.6-0.2s-0.4-0.2-0.5-0.3
			c-0.2-0.1-0.3-0.3-0.4-0.4l0.8-0.8c0.1-0.1,0.1-0.1,0.2-0.2c0.1,0,0.2-0.1,0.2-0.1c0.1,0,0.2,0,0.3,0.1s0.2,0.1,0.3,0.2
			s0.2,0.2,0.3,0.2c0.1,0.1,0.3,0.1,0.5,0.1c0.3,0,0.6-0.1,0.8-0.3c0.2-0.2,0.4-0.4,0.5-0.8c0-0.2,0-0.3,0-0.4
			c-0.1-0.1-0.1-0.2-0.3-0.3c-0.1-0.1-0.3-0.1-0.4-0.2c-0.2-0.1-0.3-0.1-0.5-0.2s-0.3-0.1-0.5-0.2c-0.1-0.1-0.3-0.2-0.4-0.3
			c-0.1-0.1-0.2-0.3-0.2-0.5s0-0.5,0.1-0.8c0.1-0.4,0.2-0.7,0.4-1s0.5-0.6,0.8-0.9c0.3-0.2,0.7-0.4,1-0.6c0.4-0.1,0.8-0.2,1.2-0.2
			c0.2,0,0.4,0,0.6,0.1c0.2,0,0.4,0.1,0.5,0.2c0.2,0.1,0.3,0.2,0.4,0.3c0.1,0.1,0.2,0.2,0.3,0.4L164,63.2z"/>
		<path class="st4" d="M166.6,63.9l-1.3,3.6c0,0.1,0,0.1-0.1,0.2v0.1c0,0.2,0,0.3,0,0.4s0.1,0.1,0.3,0.1c0.1,0,0.2,0,0.4-0.1
			c0.1-0.1,0.3-0.2,0.4-0.3c0.1-0.1,0.3-0.3,0.4-0.4c0.1-0.2,0.3-0.4,0.4-0.6l1.1-3h1.7l-2,5.6H167c-0.4,0-0.6-0.2-0.5-0.6l0.1-0.4
			c-0.4,0.3-0.7,0.6-1.1,0.8c-0.4,0.2-0.7,0.2-1,0.2c-0.2,0-0.4,0-0.6-0.1c-0.2-0.1-0.3-0.2-0.4-0.3c-0.1-0.1-0.1-0.3-0.2-0.5
			c0-0.2,0-0.5,0.1-0.7c0-0.1,0-0.1,0.1-0.2c0-0.1,0-0.1,0.1-0.2l1.3-3.6H166.6z"/>
		<path class="st4" d="M168.3,71.3l2.7-7.4h0.9c0.2,0,0.3,0,0.4,0.1c0.1,0.1,0.1,0.2,0.1,0.4l-0.1,0.5c0.3-0.3,0.7-0.6,1.1-0.8
			c0.4-0.2,0.7-0.3,1.1-0.3c0.2,0,0.4,0,0.6,0.1c0.2,0.1,0.3,0.2,0.4,0.4c0.1,0.2,0.2,0.4,0.2,0.7c0,0.3,0,0.6-0.1,1
			c-0.1,0.5-0.3,1-0.6,1.4s-0.6,0.8-0.9,1.2c-0.3,0.3-0.7,0.6-1.1,0.8c-0.4,0.2-0.7,0.3-1.1,0.3c-0.2,0-0.4,0-0.6-0.1
			c-0.2-0.1-0.3-0.2-0.4-0.3l-0.8,2.1L168.3,71.3L168.3,71.3z M173.3,65.1c-0.1,0-0.2,0-0.4,0.1c-0.1,0.1-0.3,0.2-0.5,0.4
			c-0.2,0.2-0.3,0.3-0.5,0.5s-0.3,0.4-0.4,0.7l-0.5,1.4c0.1,0.1,0.2,0.1,0.3,0.2c0.1,0,0.2,0.1,0.4,0.1s0.4-0.1,0.6-0.2
			c0.2-0.1,0.4-0.3,0.6-0.5c0.2-0.2,0.3-0.5,0.5-0.7c0.1-0.3,0.2-0.5,0.3-0.8c0.1-0.4,0.1-0.6,0-0.8
			C173.6,65.1,173.5,65.1,173.3,65.1z"/>
		<path class="st4" d="M174.2,71.3l2.7-7.4h0.9c0.2,0,0.3,0,0.4,0.1c0.1,0.1,0.1,0.2,0.1,0.4l-0.1,0.5c0.3-0.3,0.7-0.6,1.1-0.8
			c0.4-0.2,0.7-0.3,1.1-0.3c0.2,0,0.4,0,0.6,0.1c0.2,0.1,0.3,0.2,0.4,0.4c0.1,0.2,0.2,0.4,0.2,0.7c0,0.3,0,0.6-0.1,1
			c-0.1,0.5-0.3,1-0.6,1.4s-0.6,0.8-0.9,1.2c-0.3,0.3-0.7,0.6-1.1,0.8c-0.4,0.2-0.7,0.3-1.1,0.3c-0.2,0-0.4,0-0.6-0.1
			c-0.2-0.1-0.3-0.2-0.4-0.3l-0.8,2.1L174.2,71.3L174.2,71.3z M179.2,65.1c-0.1,0-0.2,0-0.4,0.1c-0.1,0.1-0.3,0.2-0.5,0.4
			c-0.2,0.2-0.3,0.3-0.5,0.5s-0.3,0.4-0.4,0.7l-0.5,1.4c0.1,0.1,0.2,0.1,0.3,0.2c0.1,0,0.2,0.1,0.4,0.1s0.4-0.1,0.6-0.2
			c0.2-0.1,0.4-0.3,0.6-0.5c0.2-0.2,0.3-0.5,0.5-0.7c0.1-0.3,0.2-0.5,0.3-0.8c0.1-0.4,0.1-0.6,0-0.8
			C179.5,65.1,179.4,65.1,179.2,65.1z"/>
		<path class="st4" d="M180.7,69.5l3-8.1h1.7l-3,8.1H180.7z"/>
		<path class="st4" d="M187.3,63.9l-2,5.6h-1.7l2-5.6H187.3z M188,62.3c0,0.1-0.1,0.3-0.2,0.4c-0.1,0.1-0.2,0.2-0.3,0.3
			s-0.2,0.2-0.4,0.2c-0.1,0.1-0.3,0.1-0.4,0.1s-0.2,0-0.3-0.1s-0.2-0.1-0.3-0.2c-0.1-0.1-0.1-0.2-0.1-0.3s0-0.2,0-0.4
			c0-0.1,0.1-0.3,0.2-0.4c0.1-0.1,0.2-0.2,0.3-0.3s0.2-0.2,0.4-0.2c0.1-0.1,0.3-0.1,0.4-0.1c0.1,0,0.2,0,0.4,0.1
			c0.1,0.1,0.2,0.1,0.3,0.2c0.1,0.1,0.1,0.2,0.1,0.3C188,62.1,188,62.2,188,62.3z"/>
		<path class="st4" d="M192.4,65.3c-0.1,0.3-0.2,0.5-0.3,0.7c-0.2,0.2-0.4,0.4-0.7,0.6s-0.7,0.3-1.1,0.4c-0.5,0.1-1,0.2-1.7,0.3
			c-0.1,0.4-0.1,0.7,0,0.8c0.1,0.2,0.3,0.3,0.6,0.3c0.1,0,0.3,0,0.4,0c0.1,0,0.2-0.1,0.3-0.1s0.2-0.1,0.3-0.1s0.1-0.1,0.2-0.1
			c0.1,0,0.1-0.1,0.2-0.1s0.1,0,0.2,0c0.1,0,0.1,0,0.1,0l0.1,0.1l0.3,0.5c-0.2,0.2-0.5,0.4-0.7,0.5s-0.4,0.3-0.7,0.4
			c-0.2,0.1-0.5,0.2-0.7,0.2s-0.5,0.1-0.8,0.1s-0.6-0.1-0.9-0.2c-0.3-0.1-0.5-0.3-0.6-0.5c-0.2-0.2-0.2-0.5-0.3-0.7
			c0-0.3,0-0.6,0.1-1c0.1-0.3,0.2-0.6,0.3-0.9s0.3-0.6,0.5-0.8c0.2-0.3,0.4-0.5,0.6-0.7c0.2-0.2,0.5-0.4,0.7-0.5
			c0.3-0.2,0.5-0.3,0.8-0.4s0.6-0.1,0.9-0.1c0.3,0,0.6,0,0.8,0.1s0.4,0.2,0.5,0.3c0.1,0.1,0.2,0.3,0.3,0.5
			C192.5,64.9,192.5,65.1,192.4,65.3z M190.5,64.9c-0.3,0-0.5,0.1-0.8,0.3c-0.3,0.2-0.5,0.5-0.7,0.9c0.4-0.1,0.7-0.1,0.9-0.2
			s0.4-0.1,0.6-0.2c0.1-0.1,0.2-0.1,0.3-0.2s0.1-0.2,0.1-0.3c0-0.1,0-0.2,0-0.3C190.8,65,190.7,64.9,190.5,64.9z"/>
		<path class="st4" d="M196.6,65.1c-0.1,0.1-0.1,0.1-0.2,0.1c-0.1,0-0.1,0-0.2,0c-0.1,0-0.1,0-0.2,0c-0.1,0-0.1-0.1-0.2-0.1
			c-0.1,0-0.2-0.1-0.2-0.1c-0.1,0-0.2,0-0.3,0c-0.2,0-0.4,0-0.6,0.1c-0.1,0.1-0.2,0.2-0.2,0.4c0,0.1,0,0.2,0,0.2
			c0,0.1,0.1,0.1,0.2,0.2c0.1,0.1,0.2,0.1,0.3,0.1s0.2,0.1,0.3,0.2s0.2,0.1,0.3,0.2s0.2,0.2,0.3,0.3c0.1,0.1,0.1,0.2,0.1,0.4
			c0,0.1,0,0.3,0,0.5c-0.1,0.3-0.2,0.5-0.4,0.8s-0.4,0.5-0.6,0.7c-0.3,0.2-0.5,0.3-0.9,0.4c-0.3,0.1-0.7,0.2-1,0.2
			c-0.2,0-0.3,0-0.5-0.1s-0.3-0.1-0.5-0.1c-0.1-0.1-0.3-0.1-0.4-0.2c-0.1-0.1-0.2-0.2-0.2-0.3l0.6-0.6c0.1-0.1,0.1-0.1,0.2-0.2
			c0.1,0,0.2-0.1,0.3-0.1s0.2,0,0.2,0.1c0.1,0,0.1,0.1,0.2,0.1c0.1,0.1,0.1,0.1,0.2,0.1c0.1,0,0.2,0.1,0.4,0.1s0.4-0.1,0.6-0.2
			c0.1-0.1,0.2-0.2,0.3-0.4c0-0.1,0-0.2,0-0.3c0-0.1-0.1-0.1-0.2-0.2c-0.1-0.1-0.2-0.1-0.3-0.1s-0.2-0.1-0.3-0.1
			c-0.1-0.1-0.2-0.1-0.3-0.2s-0.2-0.2-0.3-0.3c-0.1-0.1-0.1-0.2-0.1-0.4c0-0.1,0-0.3,0-0.5c0.1-0.3,0.2-0.5,0.3-0.8
			c0.2-0.2,0.4-0.5,0.6-0.7c0.2-0.2,0.5-0.3,0.8-0.5c0.3-0.1,0.7-0.2,1-0.2c0.4,0,0.7,0.1,1,0.2c0.3,0.1,0.5,0.3,0.6,0.5L196.6,65.1
			z"/>
	</g>
</g>
</svg>
