<?xml version="1.0" encoding="utf-8"?>
<!-- Generator: Adobe Illustrator 24.1.2, SVG Export Plug-In . SVG Version: 6.00 Build 0)  -->
<svg version="1.1" id="Layer_1" xmlns="http://www.w3.org/2000/svg" xmlns:xlink="http://www.w3.org/1999/xlink" x="0px" y="0px"
	 width="60px" height="60px" viewBox="0 0 60 60" style="enable-background:new 0 0 60 60;" xml:space="preserve">
<style type="text/css">
	.st0{fill:#C7C4C5;}
</style>
<g>
	<path class="st0" d="M14.943,16.763l12.294,13.949c0.699,0.793,1.706,1.248,2.763,1.248c1.057,0,2.064-0.455,2.763-1.248
		l12.081-13.708c0.1-0.113,0.218-0.2,0.342-0.27c-0.512-0.224-1.077-0.35-1.671-0.35h-27.03c-0.569,0-1.111,0.115-1.604,0.32
		C14.901,16.725,14.924,16.741,14.943,16.763z"/>
	<path class="st0" d="M47.049,18.341c-0.054,0.142-0.13,0.278-0.236,0.398L34.731,32.447c-1.197,1.358-2.921,2.136-4.731,2.136
		s-3.534-0.778-4.731-2.136l-12.294-13.95c-0.025-0.028-0.042-0.06-0.064-0.09c-0.379,0.629-0.602,1.363-0.602,2.152V39.44
		c0,2.306,1.87,4.176,4.176,4.176h27.031c2.306,0,4.175-1.869,4.175-4.176V20.559C47.691,19.743,47.453,18.985,47.049,18.341z"/>
</g>
</svg>
