<?xml version="1.0" encoding="utf-8"?>
<!-- Generator: Adobe Illustrator 24.1.2, SVG Export Plug-In . SVG Version: 6.00 Build 0)  -->
<svg version="1.1" id="Layer_1" xmlns="http://www.w3.org/2000/svg" xmlns:xlink="http://www.w3.org/1999/xlink" x="0px" y="0px"
	 width="190px" height="100px" viewBox="0 0 190 100" style="enable-background:new 0 0 190 100;" xml:space="preserve">
<style type="text/css">
	.st0{fill:#DB161B;}
	.st1{fill:#FFFFFF;}
	.st2{fill:#008000;}
	.st3{fill-rule:evenodd;clip-rule:evenodd;fill:#FFFFFF;stroke:#DB161B;stroke-width:0.1417;stroke-miterlimit:2;}
	.st4{fill-rule:evenodd;clip-rule:evenodd;fill:#FFFFFF;stroke:#DB161B;stroke-width:0.1321;stroke-miterlimit:2;}
	.st5{fill-rule:evenodd;clip-rule:evenodd;fill:#FFFFFF;stroke:#DB161B;stroke-width:0.0834;stroke-miterlimit:2;}
	.st6{fill-rule:evenodd;clip-rule:evenodd;fill:#FFFFFF;stroke:#DB161B;}
	.st7{fill-rule:evenodd;clip-rule:evenodd;fill:#FFFFFF;stroke:#DB161B;stroke-width:0.2118;stroke-miterlimit:2;}
	.st8{fill-rule:evenodd;clip-rule:evenodd;fill:#FFFFFF;stroke:#DB161B;stroke-width:0.1651;stroke-miterlimit:2;}
	.st9{fill:none;stroke:#DB161B;stroke-width:0.1651;stroke-miterlimit:2;}
	.st10{fill-rule:evenodd;clip-rule:evenodd;fill:#FFFFFF;stroke:#DB161B;stroke-width:0.1676;stroke-miterlimit:2;}
	.st11{fill-rule:evenodd;clip-rule:evenodd;fill:#FFFFFF;stroke:#DB161B;stroke-width:0.1472;stroke-miterlimit:2;}
	.st12{fill-rule:evenodd;clip-rule:evenodd;fill:#FFFFFF;stroke:#DB161B;stroke-width:0.1671;stroke-miterlimit:2;}
	.st13{fill:#FFFFFF;stroke:#DB161B;stroke-width:0.335;}
	.st14{fill:#DB161B;stroke:#DB161B;stroke-width:1;stroke-miterlimit:3.9999;}
	.st15{fill-rule:evenodd;clip-rule:evenodd;fill:#FFFFFF;stroke:#DB161B;stroke-width:0.1526;stroke-miterlimit:2;}
	.st16{fill:#FFFFFF;stroke:#DB161B;stroke-width:4.4628;}
	.st17{fill:#FFFFFF;stroke:#DB161B;stroke-width:4.4629;}
	.st18{fill-rule:evenodd;clip-rule:evenodd;fill:#FFFFFF;stroke:#DB161B;stroke-width:0.094;stroke-miterlimit:2;}
	.st19{fill-rule:evenodd;clip-rule:evenodd;fill:#FFFFFF;stroke:#DB161B;stroke-width:0.1617;stroke-miterlimit:2;}
	.st20{fill:#FFFFFF;stroke:#DB161B;stroke-width:0.1367;stroke-miterlimit:2;}
	.st21{fill:#FFFFFF;stroke:#DB161B;stroke-width:0.1424;stroke-miterlimit:2;}
	.st22{fill:#FFFFFF;stroke:#DB161B;}
	.st23{fill-rule:evenodd;clip-rule:evenodd;fill:#FFFFFF;stroke:#DB161B;stroke-width:0.1343;stroke-miterlimit:2;}
	.st24{fill-rule:evenodd;clip-rule:evenodd;fill:#FFFFFF;stroke:#DB161B;stroke-width:0.1367;stroke-miterlimit:2;}
	.st25{fill:#FFFFFF;stroke:#DB161B;stroke-width:0.1651;stroke-miterlimit:2;}
</style>
<g>
	<rect x="6.45" y="5.268" class="st0" width="177" height="88.5"/>
	<rect x="50.75" y="5.268" class="st1" width="132.8" height="29.5"/>
	<rect x="50.75" y="64.268" class="st2" width="132.8" height="29.5"/>
	<g id="a">
		<path class="st3" d="M16.65,20.368h4.8c0.3,0,0.5,0.2,0.5,0.4v2.2c0,0.2-0.2,0.4-0.5,0.4h-4.8c-0.3,0-0.5-0.2-0.5-0.4v-2.2
			C16.15,20.568,16.35,20.368,16.65,20.368z"/>
		<path class="st4" d="M16.75,20.568h4.5c0.2,0,0.4,0.2,0.4,0.4v2.1c0,0.2-0.2,0.4-0.4,0.4h-4.5c-0.2,0-0.4-0.2-0.4-0.4v-2.1
			C16.35,20.768,16.55,20.568,16.75,20.568z"/>
		<path class="st5" d="M18.85,21.368h0.3v0.1l0.2,0.1l0.2-0.1l0.2,0.1l-0.2,0.1v0.2h0.2v0.2h-0.2l-0.1,0.1l0.2,0.2l-0.2,0.1
			l-0.2-0.1l-0.3,0.1v0.2h-0.3v-0.2l-0.2-0.1l-0.1,0.1l-0.2-0.1l0.1-0.2l-0.1-0.1h-0.2v-0.3h0.2l0.1-0.2l-0.2-0.1l0.2-0.2l0.2,0.1
			h0.3C18.75,21.468,18.85,21.368,18.85,21.368z"/>
		<ellipse class="st6" cx="18.95" cy="21.968" rx="0.3" ry="0.3"/>
		<path class="st4" d="M17.05,20.668l-0.4,0.4"/>
		<path class="st4" d="M17.35,20.668l-0.4,0.4"/>
		<path class="st4" d="M17.65,20.668l-0.4,0.4"/>
		<path class="st4" d="M17.95,20.668l-0.4,0.4"/>
		<path class="st4" d="M18.25,20.668l-0.4,0.4"/>
		<path class="st4" d="M18.55,20.668l-0.4,0.4"/>
		<path class="st4" d="M18.75,20.668l-0.4,0.4"/>
		<path class="st4" d="M19.05,20.668l-0.4,0.4"/>
		<path class="st4" d="M19.35,20.668l-0.4,0.4"/>
		<path class="st4" d="M19.65,20.668l-0.4,0.4"/>
		<path class="st4" d="M19.95,20.668l-0.4,0.4"/>
		<path class="st4" d="M20.25,20.668l-0.4,0.4"/>
		<path class="st4" d="M19.05,20.668l-0.4,0.4"/>
		<path class="st4" d="M20.55,20.668l-0.4,0.4"/>
		<path class="st4" d="M20.85,20.668l-0.4,0.4"/>
		<path class="st4" d="M21.15,20.668l-0.4,0.4"/>
		<path class="st4" d="M21.45,20.668l-0.5,0.4"/>
		<path class="st4" d="M20.95,20.668l0.4,0.4"/>
		<path class="st4" d="M20.65,20.668l0.4,0.4"/>
		<path class="st4" d="M20.45,20.668l0.4,0.4"/>
		<path class="st4" d="M20.15,20.668l0.4,0.4"/>
		<path class="st4" d="M19.85,20.668l0.4,0.4"/>
		<path class="st4" d="M19.55,20.668l0.4,0.4"/>
		<path class="st4" d="M19.25,20.668l0.4,0.4"/>
		<path class="st4" d="M18.95,20.668l0.4,0.4"/>
		<path class="st4" d="M18.65,20.668l0.4,0.4"/>
		<path class="st4" d="M18.35,20.668l0.4,0.4"/>
		<path class="st4" d="M18.05,20.668l0.4,0.4"/>
		<path class="st4" d="M17.75,20.668l0.4,0.4"/>
		<path class="st4" d="M18.95,20.668l0.4,0.4"/>
		<path class="st4" d="M17.45,20.668l0.4,0.4"/>
		<path class="st4" d="M17.15,20.668l0.4,0.4"/>
		<path class="st4" d="M16.85,20.668l0.4,0.4"/>
		<path class="st4" d="M16.65,20.668l0.4,0.4"/>
		<path class="st4" d="M17.05,22.868l-0.4,0.4"/>
		<path class="st4" d="M17.35,22.868l-0.5,0.4"/>
		<path class="st4" d="M17.65,22.868l-0.5,0.4"/>
		<path class="st4" d="M17.95,22.868l-0.5,0.4"/>
		<path class="st4" d="M18.25,22.868l-0.5,0.4"/>
		<path class="st4" d="M18.55,22.868l-0.5,0.4"/>
		<path class="st4" d="M18.75,22.868l-0.4,0.4"/>
		<path class="st4" d="M19.05,22.868l-0.4,0.4"/>
		<path class="st4" d="M19.35,22.868l-0.4,0.4"/>
		<path class="st4" d="M19.65,22.868l-0.4,0.4"/>
		<path class="st4" d="M19.95,22.868l-0.4,0.4"/>
		<path class="st4" d="M20.25,22.868l-0.4,0.4"/>
		<path class="st4" d="M19.05,22.868l-0.4,0.4"/>
		<path class="st4" d="M20.55,22.868l-0.4,0.4"/>
		<path class="st4" d="M20.85,22.868l-0.4,0.4"/>
		<path class="st4" d="M21.15,22.868l-0.5,0.4"/>
		<path class="st4" d="M21.45,22.868l-0.5,0.4"/>
		<path class="st4" d="M20.95,22.868l0.4,0.4"/>
		<path class="st4" d="M20.65,22.868l0.4,0.4"/>
		<path class="st4" d="M20.45,22.868l0.4,0.4"/>
		<path class="st4" d="M20.15,22.868l0.4,0.4"/>
		<path class="st4" d="M19.85,22.868l0.4,0.4"/>
		<path class="st4" d="M19.55,22.868l0.4,0.4"/>
		<path class="st4" d="M19.25,22.868l0.4,0.4"/>
		<path class="st4" d="M18.95,22.868l0.4,0.4"/>
		<path class="st4" d="M18.65,22.868l0.4,0.4"/>
		<path class="st4" d="M18.35,22.868l0.4,0.4"/>
		<path class="st4" d="M18.05,22.868l0.4,0.4"/>
		<path class="st4" d="M17.75,22.868l0.4,0.4"/>
		<path class="st4" d="M18.95,22.868l0.4,0.4"/>
		<path class="st4" d="M17.45,22.868l0.5,0.4"/>
		<path class="st4" d="M17.15,22.868l0.4,0.4"/>
		<path class="st4" d="M16.85,22.868l0.4,0.4"/>
		<path class="st4" d="M16.65,22.868l0.4,0.4"/>
	</g>
	<g transform="scale(-1,1)">
		<g id="a_1_">
			<path class="st3" d="M-41.381,20.768v2.2c0,0.2,0.2,0.4,0.5,0.4h4.8c0.3,0,0.5-0.2,0.5-0.4v-2.2c0-0.2-0.2-0.4-0.5-0.4h-4.8
				C-41.081,20.368-41.281,20.568-41.381,20.768z"/>
			<path class="st4" d="M-41.081,20.968v2.1c0,0.2,0.2,0.4,0.4,0.4h4.5c0.2,0,0.4-0.2,0.4-0.4v-2.1c0-0.2-0.2-0.4-0.4-0.4h-4.5
				C-40.981,20.568-41.181,20.768-41.081,20.968z"/>
			<path class="st5" d="M-38.781,21.368h-0.3l-0.2-0.1l-0.2,0.2l0.2,0.1l-0.1,0.2h-0.2v0.3h0.2l0.1,0.1l-0.1,0.2l0.2,0.1l0.1-0.1
				l0.2,0.1v0.2h0.3v-0.2l0.3-0.1l0.2,0.1l0.2-0.1l-0.2-0.2l0.1-0.1h0.2v-0.2h-0.2v-0.2l0.2-0.1l-0.2-0.1l-0.2,0.1l-0.2-0.1v-0.1
				h-0.3C-38.681,21.368-38.681,21.468-38.781,21.368z"/>
			<ellipse class="st6" cx="-38.581" cy="21.968" rx="0.3" ry="-0.3"/>
			<path class="st4" d="M-40.881,21.068l0.4-0.4"/>
			<path class="st4" d="M-40.581,21.068l0.4-0.4"/>
			<path class="st4" d="M-40.281,21.068l0.4-0.4"/>
			<path class="st4" d="M-39.981,21.068l0.4-0.4"/>
			<path class="st4" d="M-39.681,21.068l0.4-0.4"/>
			<path class="st4" d="M-39.381,21.068l0.4-0.4"/>
			<path class="st4" d="M-39.081,21.068l0.4-0.4"/>
			<path class="st4" d="M-38.781,21.068l0.4-0.4"/>
			<path class="st4" d="M-38.481,21.068l0.4-0.4"/>
			<path class="st4" d="M-38.181,21.068l0.4-0.4"/>
			<path class="st4" d="M-37.881,21.068l0.4-0.4"/>
			<path class="st4" d="M-37.581,21.068l0.4-0.4"/>
			<path class="st4" d="M-38.781,21.068l0.4-0.4"/>
			<path class="st4" d="M-37.281,21.068l0.4-0.4"/>
			<path class="st4" d="M-37.081,21.068l0.4-0.4"/>
			<path class="st4" d="M-36.781,21.068l0.4-0.4"/>
			<path class="st4" d="M-36.481,21.068l0.4-0.4"/>
			<path class="st4" d="M-36.081,21.068l-0.4-0.4"/>
			<path class="st4" d="M-36.381,21.068l-0.4-0.4"/>
			<path class="st4" d="M-36.681,21.068l-0.4-0.4"/>
			<path class="st4" d="M-36.981,21.068l-0.4-0.4"/>
			<path class="st4" d="M-37.281,21.068l-0.4-0.4"/>
			<path class="st4" d="M-37.581,21.068l-0.4-0.4"/>
			<path class="st4" d="M-37.881,21.068l-0.4-0.4"/>
			<path class="st4" d="M-38.181,21.068l-0.4-0.4"/>
			<path class="st4" d="M-38.481,21.068l-0.4-0.4"/>
			<path class="st4" d="M-38.681,21.068l-0.4-0.4"/>
			<path class="st4" d="M-38.981,21.068l-0.4-0.4"/>
			<path class="st4" d="M-39.281,21.068l-0.4-0.4"/>
			<path class="st4" d="M-38.181,21.068l-0.4-0.4"/>
			<path class="st4" d="M-39.581,21.068l-0.4-0.4"/>
			<path class="st4" d="M-39.881,21.068l-0.4-0.4"/>
			<path class="st4" d="M-40.181,21.068l-0.4-0.4"/>
			<path class="st4" d="M-40.481,21.068l-0.4-0.4"/>
			<path class="st4" d="M-40.881,23.268l0.4-0.4"/>
			<path class="st4" d="M-40.581,23.268l0.4-0.4"/>
			<path class="st4" d="M-40.281,23.268l0.4-0.4"/>
			<path class="st4" d="M-39.981,23.268l0.4-0.4"/>
			<path class="st4" d="M-39.681,23.268l0.4-0.4"/>
			<path class="st4" d="M-39.381,23.268l0.4-0.4"/>
			<path class="st4" d="M-39.081,23.268l0.4-0.4"/>
			<path class="st4" d="M-38.781,23.268l0.4-0.4"/>
			<path class="st4" d="M-38.481,23.268l0.4-0.4"/>
			<path class="st4" d="M-38.281,23.268l0.5-0.4"/>
			<path class="st4" d="M-37.881,23.268l0.4-0.4"/>
			<path class="st4" d="M-37.581,23.268l0.4-0.4"/>
			<path class="st4" d="M-38.781,23.268l0.4-0.4"/>
			<path class="st4" d="M-37.281,23.268l0.4-0.4"/>
			<path class="st4" d="M-37.081,23.268l0.4-0.4"/>
			<path class="st4" d="M-36.781,23.268l0.4-0.4"/>
			<path class="st4" d="M-36.481,23.268l0.4-0.4"/>
			<path class="st4" d="M-36.081,23.268l-0.4-0.4"/>
			<path class="st4" d="M-36.381,23.268l-0.4-0.4"/>
			<path class="st4" d="M-36.681,23.268l-0.4-0.4"/>
			<path class="st4" d="M-36.881,23.268l-0.5-0.4"/>
			<path class="st4" d="M-37.181,23.268l-0.5-0.4"/>
			<path class="st4" d="M-37.481,23.268l-0.5-0.4"/>
			<path class="st4" d="M-37.781,23.268l-0.5-0.4"/>
			<path class="st4" d="M-38.081,23.268l-0.5-0.4"/>
			<path class="st4" d="M-38.381,23.268l-0.5-0.4"/>
			<path class="st4" d="M-38.681,23.268l-0.4-0.4"/>
			<path class="st4" d="M-38.981,23.268l-0.4-0.4"/>
			<path class="st4" d="M-39.281,23.268l-0.4-0.4"/>
			<path class="st4" d="M-38.081,23.268l-0.5-0.4"/>
			<path class="st4" d="M-39.581,23.268l-0.4-0.4"/>
			<path class="st4" d="M-39.881,23.268l-0.4-0.4"/>
			<path class="st4" d="M-40.181,23.268l-0.4-0.4"/>
			<path class="st4" d="M-40.481,23.268l-0.4-0.4"/>
		</g>
	</g>
	<g id="b">
		<path class="st7" d="M25.15,26.968c-7.1,6.9-10.1,7.8-8.7,8.4c1.4,0.6,6-3,10.7-7.8c4.8-4.8,7.7-9,6.2-9.6
			C31.95,17.468,32.65,19.568,25.15,26.968z"/>
		<path class="st8" d="M19.15,31.968l2.5,0.7c-2.3,2.2-5,3.1-5.7,2.7C15.15,34.968,17.25,34.068,19.15,31.968z"/>
		<path class="st8" d="M19.15,32.268l2,0.5c-2.3,2.1-4.5,2.7-5.1,2.5C15.45,34.968,17.25,34.268,19.15,32.268z"/>
		<path class="st9" d="M26.75,26.668v0.2c0,0.1,0,0.1,0,0.2s0,0.1-0.1,0.1c0,0.1-0.1,0.1-0.1,0.1s-0.1,0.1-0.2,0.1s-0.1,0-0.2,0
			s-0.1-0.1-0.2-0.1c0-0.1,0-0.1,0-0.2c0,0.1,0,0.1,0,0.2s0,0.1-0.1,0.2"/>
		<path class="st9" d="M26.15,27.768C26.05,27.768,26.05,27.768,26.15,27.768L26.15,27.768c-0.2-0.1-0.2-0.1-0.3-0.1h-0.3
			c-0.1,0-0.2,0-0.2,0c-0.1,0-0.1,0.1-0.2,0.1s-0.1,0.1-0.1,0.1c-0.1,0-0.1,0.1-0.1,0.1c0,0.1-0.1,0.1-0.1,0.1c0.1,0,0.2,0,0.2,0.1
			c0.1,0-0.1,0-0.1-0.1c-0.1,0-0.1,0-0.2,0s-0.1,0-0.2,0h-0.1"/>
		<path class="st9" d="M25.15,28.568c0,0-0.2,0-0.3,0c-0.1,0-0.1-0.1-0.2-0.1v0.1c0,0.1,0,0.1-0.1,0.2c-0.1,0-0.1,0.1-0.2,0.1
			c0,0-0.1,0.1-0.2,0.1s-0.1,0-0.2,0.1c-0.1,0-0.1,0.1-0.1,0.1c0,0.1,0,0.1,0.1,0.2c0,0.1,0.1,0.1,0.1,0.1c0,0.1,0.1,0.1,0,0.1
			s-0.1,0-0.2,0"/>
		<path class="st9" d="M23.95,29.668c0,0-0.2-0.1-0.3-0.1h-0.3c-0.1,0-0.1,0-0.2,0.1c-0.1,0-0.1,0.1-0.2,0.1c0,0-0.1,0.1-0.1,0.2
			s0,0.1,0,0.2s0,0.1,0,0.2s0.1,0.1,0.1,0.2l0,0"/>
		<path class="st9" d="M23.15,30.768C23.15,30.768,23.05,30.868,23.15,30.768c-0.1,0.1-0.1,0.1-0.2,0.1s-0.1,0-0.1-0.1l-0.1-0.1
			c0,0,0-0.1-0.1-0.1l-0.1-0.1c0,0,0,0-0.1,0c0.1,0,0.1,0,0.1,0.1c0,0,0,0.1,0.1,0.1c0,0.1,0,0.1,0,0.2s0,0.1,0,0.2l-0.1,0.1
			l-0.1,0.1c0,0-0.1,0-0.1,0.1c0,0-0.1,0-0.1,0.1c-0.1,0-0.1,0-0.2-0.1l-0.1-0.1l-0.1-0.1c-0.1,0-0.1,0-0.2,0l-0.1,0.1
			c0,0-0.1,0-0.1,0.1"/>
		<path class="st9" d="M21.65,31.268l0.1,0.1c0,0.1,0.1,0.1,0.1,0.2c0,0.1,0,0.1,0,0.2c0,0.1-0.1,0.1-0.1,0.2
			c-0.1,0-0.1,0.1-0.1,0.1c-0.1,0-0.1,0-0.2,0s-0.1,0-0.2,0s-0.1,0-0.2-0.1c-0.1,0-0.1-0.1-0.2-0.1l-0.1-0.1c0-0.1-0.1-0.1-0.1-0.1
			c0,0.1,0.1,0.1,0.1,0.2c0,0.1,0.1,0.1,0.1,0.2c0,0.1,0,0.1,0,0.2c0,0.1,0,0.1,0,0.2l0,0"/>
		<path class="st9" d="M19.35,32.768L19.35,32.768c0,0,0,0,0,0.1s0.2,0.1,0.3,0c0.1-0.1,0.1-0.1,0.2-0.1s0.2,0,0.3,0.1
			c0.1,0,0.1,0.1,0.2,0.2c0,0.1,0,0.1-0.1,0.2c-0.1,0-0.2,0-0.3,0s-0.2,0-0.3,0c-0.1,0.1-0.1,0.1-0.1,0.3c0,0,0,0.2-0.1,0.2
			s-0.1,0-0.2,0c0-0.1-0.1-0.2-0.1-0.3s0-0.2-0.1-0.3c0-0.1-0.1-0.1-0.2-0.2c0,0-0.1-0.1-0.2-0.1c0.1,0,0.1,0.1,0.1,0.2
			c0.2,0.2,0.1,0.2,0,0.2s-0.2,0-0.2-0.1c0,0.1-0.1,0.2-0.1,0.3c-0.1,0.1-0.1,0.1-0.1,0.2c0,0.1,0.1,0.1,0.1,0.3
			c0,0.1,0,0.2,0.1,0.2h0.1c-0.1,0-0.2,0-0.3-0.1c-0.1,0-0.1-0.1-0.2-0.1c-0.1-0.1-0.2-0.1-0.3-0.1c-0.1,0-0.2,0-0.3,0
			c-0.1,0-0.1,0.1-0.2,0.2c0,0.1,0,0.2,0,0.3s0.1,0.1,0,0.2c-0.1,0.1-0.1,0.1-0.3,0.1c-0.1,0-0.2,0-0.3,0"/>
		<path class="st10" d="M33.25,20.668c3.1-5.4,5.2-10.1,4.7-10.3c-0.6-0.3-3.6,3.9-6.7,9.4L33.25,20.668z"/>
		<path class="st11" d="M32.95,20.568c3-5.2,5.1-9.7,4.7-9.9s-3.3,3.9-6.3,9.1"/>
		<path class="st12" d="M32.45,17.868c-0.4,0.6-0.8,1.3-1.1,2l1.7,0.8c0.4-0.7,0.8-1.3,1.1-2
			C34.15,18.668,32.45,17.868,32.45,17.868z"/>
		<path class="st12" d="M32.65,18.068c-0.4,0.6-0.6,1.1-1,1.7l1.2,0.6c0.4-0.7,0.7-1.1,1-1.7L32.65,18.068z"/>
		<polygon class="st13" points="33.55,18.768 32.65,18.368 31.95,19.668 32.75,20.068 		"/>
		<path class="st12" d="M33.55,18.768l-1.6,0.9"/>
		<path class="st12" d="M32.75,20.068l-0.1-1.7"/>
		<path class="st12" d="M37.25,12.268l-0.8-0.4"/>
		<ellipse class="st14" cx="37.241" cy="11.464" rx="0.2" ry="0.2"/>
	</g>
	<g transform="scale(-1,1)">
		<g id="b_1_">
			<path class="st7" d="M-24.181,17.968c1.5,0.6-1.4,4.8-6.2,9.6c-4.7,4.8-9.3,8.4-10.7,7.8s1.6-1.5,8.7-8.4
				C-24.781,19.568-25.481,17.468-24.181,17.968z"/>
			<path class="st8" d="M-41.581,35.368c0.7,0.4,3.4-0.5,5.7-2.7l-2.5-0.7C-40.281,34.068-42.281,34.968-41.581,35.368z"/>
			<path class="st8" d="M-41.481,35.268c0.6,0.2,2.8-0.4,5.1-2.5l-2-0.5C-40.181,34.268-41.981,34.968-41.481,35.268z"/>
			<path class="st9" d="M-31.581,27.468c0.1-0.1,0.1-0.1,0.1-0.2s0-0.1,0-0.2c0,0.1,0,0.1,0,0.2c0.1,0,0.1,0.1,0.2,0.1s0.1,0,0.2,0
				s0.2-0.1,0.2-0.1s0.1,0,0.1-0.1c0.1,0,0.1,0,0.1-0.1s0-0.1,0-0.2v-0.2"/>
			<path class="st9" d="M-33.081,28.068h0.1c0.1,0,0.1,0,0.2,0c0.1,0,0.1,0,0.2,0c0,0.1,0.2,0.1,0.1,0.1c0-0.1-0.1-0.1-0.2-0.1
				c0,0,0.1,0,0.1-0.1c0,0,0-0.1,0.1-0.1c0,0,0-0.1,0.1-0.1c0.1,0,0.1-0.1,0.2-0.1c0,0,0.1,0,0.2,0h0.3c0.1,0,0.1,0,0.3,0.1l0,0l0,0
				"/>
			<path class="st9" d="M-33.681,29.568c0.1,0,0.1,0,0.2,0s0,0,0-0.1c0,0-0.1,0-0.1-0.1c-0.1-0.1-0.1-0.1-0.1-0.2c0,0,0-0.1,0.1-0.1
				c0.1-0.1,0.1-0.1,0.2-0.1c0.1,0,0.2-0.1,0.2-0.1c0.1,0,0.1-0.1,0.2-0.1c0.1-0.1,0.1-0.1,0.1-0.2v-0.1c0.1,0,0.1,0.1,0.2,0.1
				s0.3,0,0.3,0"/>
			<path class="st9" d="M-34.481,30.568L-34.481,30.568c0-0.1-0.1-0.1-0.1-0.2s0-0.1,0-0.2s0-0.1,0-0.2s0.1-0.2,0.1-0.2
				c0.1,0,0.1-0.1,0.2-0.1c0.1-0.1,0.1-0.1,0.2-0.1h0.3c0.1,0,0.3,0.1,0.3,0.1"/>
			<path class="st9" d="M-36.081,31.368c0-0.1,0.1-0.1,0.1-0.1l0.1-0.1c0.1,0,0.1,0,0.2,0l0.1,0.1l0.1,0.1c0.1,0.1,0.1,0.1,0.2,0.1
				c0-0.1,0.1-0.1,0.1-0.1c0-0.1,0.1-0.1,0.1-0.1l0.1-0.1l0.1-0.1c0-0.1,0-0.1,0-0.2s0-0.1,0-0.2c-0.1,0-0.1-0.1-0.1-0.1
				c0-0.1,0-0.1-0.1-0.1c0.1,0,0.1,0,0.1,0l0.1,0.1c0.1,0,0.1,0.1,0.1,0.1l0.1,0.1c0,0.1,0,0.1,0.1,0.1c0.1,0,0.1,0,0.2-0.1
				c0,0.1,0,0,0,0"/>
			<path class="st9" d="M-36.581,32.468L-36.581,32.468c0-0.1,0-0.1,0-0.2c0-0.1,0-0.1,0-0.2c0-0.1-0.1-0.1-0.1-0.2
				c0-0.1-0.1-0.1-0.1-0.2c0,0,0.1,0,0.1,0.1l0.1,0.1c0.1,0,0.1,0.1,0.2,0.1c0.1,0.1,0.1,0.1,0.2,0.1c0.1,0,0.1,0,0.2,0
				c0.1,0,0.1,0,0.2,0c0,0,0-0.1,0.1-0.1c0-0.1,0.1-0.1,0.1-0.2c0-0.1,0-0.1,0-0.2c0-0.1-0.1-0.1-0.1-0.2l-0.1-0.1"/>
			<path class="st9" d="M-40.981,34.568c0.1,0,0.2,0,0.3,0c0.2,0,0.2,0,0.3-0.1c0.1-0.1,0-0.1,0-0.2s0-0.2,0-0.3
				c0.1-0.1,0.1-0.2,0.2-0.2s0.2,0,0.3,0s0.2,0,0.3,0.1c0.1,0,0.1,0.1,0.2,0.1c0.1,0.1,0.2,0.1,0.3,0.1h-0.1c-0.1,0-0.1-0.1-0.1-0.2
				c0-0.2-0.1-0.2-0.1-0.3c0-0.1,0-0.1,0.1-0.2c0-0.1,0.1-0.2,0.1-0.3c0,0.1,0.1,0.1,0.2,0.1c0.2,0,0.2-0.1,0.3-0.1
				c0-0.1,0-0.2-0.1-0.2c0.1,0,0.2,0.1,0.2,0.1c0.1,0.1,0.2,0.1,0.2,0.2c0.1,0.1,0.1,0.2,0.1,0.3s0.1,0.2,0.1,0.3c0.1,0,0.1,0,0.2,0
				s0.1-0.2,0.1-0.2c0-0.2,0-0.2,0.1-0.3c0.1,0,0.2,0,0.3,0c0.1,0,0.2,0,0.2,0c0.1-0.1,0.1-0.1,0.1-0.2c-0.1-0.1-0.1-0.2-0.2-0.2
				c-0.1-0.1-0.2-0.1-0.3-0.1c-0.1,0-0.1,0-0.2,0.1s-0.3,0.1-0.3,0s0-0.1,0-0.1l0,0"/>
			<path class="st10" d="M-26.281,19.768c3.1-5.5,6.1-9.7,6.7-9.4c0.5,0.2-1.6,4.9-4.7,10.3L-26.281,19.768z"/>
			<path class="st11" d="M-26.081,19.768c3-5.2,5.9-9.3,6.3-9.1s-1.7,4.7-4.7,9.9"/>
			<path class="st12" d="M-23.281,18.668c-0.3,0.7-0.7,1.3-1.1,2l-1.7-0.8c0.3-0.7,0.7-1.4,1.1-2
				C-24.981,17.868-23.381,18.668-23.281,18.668z"/>
			<path class="st12" d="M-23.681,18.668c-0.3,0.6-0.6,1-1,1.7l-1.2-0.6c0.4-0.6,0.6-1.1,1-1.7
				C-24.881,18.068-23.581,18.668-23.681,18.668z"/>
			<polygon class="st13" points="-24.681,20.068 -25.481,19.668 -24.781,18.368 -23.981,18.768 			"/>
			<path class="st12" d="M-25.581,19.668l1.6-0.9"/>
			<path class="st12" d="M-24.781,18.368l0.1,1.7"/>
			<path class="st12" d="M-20.981,11.868l0.8,0.4"/>
			<ellipse class="st14" cx="-20.225" cy="11.466" rx="0.2" ry="-0.2"/>
		</g>
	</g>
	<path class="st15" d="M26.45,17.768c0,4.6,0,6.3-0.3,6.5c-0.3,0.3-9.2,0-9.2,1.3s7.3,2.6,9.5,2.6c2.9,0,4.4-1.3,4.4-3.9v-6.5
		C30.75,17.768,26.45,17.768,26.45,17.768z"/>
	<path class="st4" d="M26.45,19.068v0.7c1.5,0.2,2.9,0.2,4.4,0v-0.7C29.35,19.368,27.85,19.368,26.45,19.068z"/>
	<path class="st4" d="M26.45,17.768v0.7c1.5,0.2,2.9,0.2,4.4,0v-0.7C29.35,17.968,27.85,17.968,26.45,17.768z"/>
	<path class="st4" d="M26.45,18.468v0.7c1.5,0.2,2.9,0.2,4.4,0v-0.7C29.35,18.668,27.85,18.668,26.45,18.468z"/>
	<path class="st4" d="M26.45,19.768v0.7c1.5,0.2,2.9,0.2,4.4,0v-0.7C29.35,19.968,27.85,19.968,26.45,19.768z"/>
	<ellipse class="st16" cx="26.65" cy="18.868" rx="0.2" ry="0.1"/>
	<ellipse class="st16" cx="27.35" cy="18.868" rx="0.2" ry="0.1"/>
	<ellipse class="st17" cx="28.15" cy="18.968" rx="0.2" ry="0.1"/>
	<ellipse class="st17" cx="28.95" cy="18.968" rx="0.2" ry="0.1"/>
	<ellipse class="st16" cx="29.75" cy="18.868" rx="0.2" ry="0.1"/>
	<ellipse class="st16" cx="30.55" cy="18.868" rx="0.2" ry="0.1"/>
	<g>
		<path class="st4" d="M26.45,21.068l4.4,3.5"/>
		<path class="st4" d="M26.85,21.068l4,3.1"/>
		<path class="st4" d="M27.45,21.168l3.4,2.6"/>
		<path class="st4" d="M27.85,21.168l2.9,2.2"/>
		<path class="st4" d="M28.35,21.168l2.5,1.8"/>
		<path class="st4" d="M28.75,21.168l2,1.4"/>
		<path class="st4" d="M29.15,21.168l1.6,1"/>
		<path class="st4" d="M29.65,21.168l1.2,0.8"/>
		<path class="st4" d="M30.05,21.168l0.7,0.5"/>
		<path class="st4" d="M30.45,21.168l0.3,0.3"/>
		<path class="st4" d="M26.45,21.468l4.4,3.5"/>
		<path class="st4" d="M30.75,21.068l-4.8,3.9"/>
		<path class="st4" d="M30.35,21.068l-4.2,3.4"/>
		<path class="st4" d="M29.75,21.168l-3.4,2.6"/>
		<path class="st4" d="M29.35,21.168l-2.9,2.2"/>
		<path class="st4" d="M28.85,21.168l-2.5,1.8"/>
		<path class="st4" d="M28.45,21.168l-2,1.4"/>
		<path class="st4" d="M28.05,21.168l-1.6,1"/>
		<path class="st4" d="M27.55,21.168l-1.2,0.8"/>
		<path class="st4" d="M27.15,21.168l-0.7,0.5"/>
		<path class="st4" d="M26.65,21.168l-0.3,0.3"/>
		<path class="st4" d="M30.75,21.468l-4.8,3.9"/>
		<path class="st4" d="M30.75,21.868l-4.8,3.9"/>
		<path class="st4" d="M30.75,22.268l-4.8,3.9"/>
		<path class="st4" d="M30.75,22.668l-4.8,3.9"/>
		<path class="st4" d="M30.75,22.968l-4.8,4"/>
		<path class="st4" d="M30.75,23.368l-4.8,3.9"/>
		<path class="st4" d="M30.75,23.768l-4.8,3.9"/>
		<path class="st4" d="M30.75,24.168l-4.8,3.9"/>
		<path class="st4" d="M30.75,24.568l-4.5,3.7"/>
		<path class="st4" d="M30.75,24.968l-4.1,3.3"/>
		<path class="st4" d="M30.65,25.468l-3.2,2.6"/>
		<path class="st4" d="M30.45,25.968l-2.6,2.1"/>
		<path class="st4" d="M30.25,26.668l-1.3,1"/>
		<path class="st4" d="M26.45,21.868l4.2,3.4"/>
		<path class="st4" d="M26.45,22.268l4.2,3.4"/>
		<path class="st4" d="M26.45,22.668l4.1,3.3"/>
		<path class="st4" d="M26.45,22.968l4.1,3.3"/>
		<path class="st4" d="M26.45,23.368l3.9,3.1"/>
		<path class="st4" d="M26.25,23.668l3.9,3.1"/>
		<path class="st4" d="M26.25,24.068l3.7,2.9"/>
		<path class="st4" d="M26.15,24.368l3.7,2.9"/>
		<path class="st4" d="M25.95,24.568l3.5,2.7"/>
		<path class="st4" d="M25.95,24.968l3.4,2.6"/>
		<path class="st4" d="M25.95,25.368l2.9,2.3"/>
	</g>
	<path class="st4" d="M26.45,20.368v0.7c1.5,0.2,2.9,0.2,4.4,0v-0.7C29.35,20.668,27.85,20.668,26.45,20.368z"/>
	<path class="st4" d="M25.95,25.768l2.6,2.1"/>
	<path class="st4" d="M25.95,26.168l2.3,1.8"/>
	<path class="st4" d="M25.95,26.568l2,1.6"/>
	<path class="st4" d="M25.95,26.968l1.5,1.2"/>
	<path class="st4" d="M25.95,27.268l1.2,0.9"/>
	<path class="st4" d="M25.95,27.668l0.7,0.5"/>
	<ellipse class="st16" cx="26.65" cy="20.768" rx="0.2" ry="0.1"/>
	<ellipse class="st16" cx="27.35" cy="20.868" rx="0.2" ry="0.1"/>
	<ellipse class="st17" cx="28.15" cy="20.968" rx="0.2" ry="0.1"/>
	<ellipse class="st17" cx="28.95" cy="20.968" rx="0.2" ry="0.1"/>
	<ellipse class="st16" cx="29.75" cy="20.868" rx="0.2" ry="0.1"/>
	<ellipse class="st16" cx="30.55" cy="20.768" rx="0.2" ry="0.1"/>
	<g>
		<path class="st4" d="M20.15,27.168l5.3-2.7"/>
		<path class="st4" d="M19.85,27.068l5-2.6"/>
		<path class="st4" d="M19.65,26.768l4.5-2.3"/>
		<path class="st4" d="M19.55,26.568l3.9-2.1"/>
		<path class="st4" d="M19.25,26.268l3.7-1.8"/>
		<path class="st4" d="M19.35,25.868l2.5-1.3"/>
		<path class="st4" d="M19.25,25.668l1.9-1"/>
		<path class="st4" d="M19.25,25.268l1.3-0.7"/>
		<path class="st4" d="M20.55,27.268l5-2.6"/>
		<path class="st4" d="M20.95,27.468l4.7-2.5"/>
		<path class="st4" d="M21.45,27.568l4.4-2.3"/>
		<path class="st4" d="M21.85,27.668l3.7-2"/>
		<path class="st4" d="M22.45,27.668l3.2-1.7"/>
		<path class="st4" d="M22.85,27.868l2.8-1.4"/>
		<path class="st4" d="M23.35,27.968l2.2-1.2"/>
		<path class="st4" d="M23.95,27.968l1.8-0.9"/>
		<path class="st4" d="M24.45,28.068l1.2-0.7"/>
		<path class="st4" d="M25.05,28.068l0.7-0.4"/>
	</g>
	<path class="st4" d="M26.15,24.368h-0.7c-0.2,1.3-0.2,2.6,0,3.9h0.7C25.85,26.968,25.85,25.668,26.15,24.368z"/>
	<path class="st4" d="M17.45,26.168l1.8-1.3"/>
	<path class="st4" d="M17.45,25.268l1.8,1.6"/>
	<path class="st18" d="M20.15,24.568l-0.9,0.1c-0.2,0.8-0.2,1.5,0,2.3l0.9,0.3C19.95,26.468,19.95,25.368,20.15,24.568z"/>
	<path class="st19" d="M30.75,18.068v-0.7c-0.7,0-1.1-0.4-1.1-0.8h-2.2c0,0.4-0.4,0.8-1.1,0.8v0.7H30.75z"/>
	<rect x="27.65" y="15.868" class="st20" width="1.9" height="0.8"/>
	<rect x="27.85" y="15.068" class="st20" width="1.6" height="0.8"/>
	<rect x="27.85" y="14.268" class="st20" width="1.6" height="0.8"/>
	<rect x="27.95" y="13.268" class="st20" width="1.3" height="1"/>
	<rect x="27.95" y="12.368" class="st21" width="1.4" height="0.9"/>
	<ellipse class="st22" cx="28.65" cy="11.468" rx="1.8" ry="1.2"/>
	<path class="st23" d="M29.55,11.368c0,0.3,0.5,0.9,0.5,0.9c-0.3,0.2-0.9,0.4-1.4,0.4s-1.1-0.1-1.4-0.4c0,0,0.5-0.6,0.5-0.9
		c0-0.3-0.5-0.8-0.5-0.8c0.3-0.2,0.9-0.4,1.4-0.4s1,0.2,1.4,0.4C30.05,10.668,29.55,11.068,29.55,11.368z"/>
	<path class="st23" d="M29.25,11.368c0,0.3,0.5,1,0.5,1c-0.3,0.2-0.6,0.3-1.1,0.3s-0.8,0-1.1-0.3c0,0,0.5-0.7,0.5-1
		s-0.5-0.9-0.5-0.9c0.4-0.2,0.6-0.2,1.1-0.2s0.7,0,1.1,0.3C29.75,10.468,29.25,11.068,29.25,11.368z"/>
	<ellipse class="st22" cx="26.85" cy="11.568" rx="0.5" ry="0.4"/>
	<ellipse class="st22" cx="30.45" cy="11.568" rx="0.5" ry="0.4"/>
	<ellipse class="st22" cx="28.65" cy="11.568" rx="0.5" ry="0.4"/>
	<ellipse class="st22" cx="28.65" cy="10.268" rx="0.5" ry="0.4"/>
	<ellipse class="st22" cx="27.35" cy="17.668" rx="0.5" ry="0.4"/>
	<ellipse class="st22" cx="29.85" cy="17.668" rx="0.5" ry="0.4"/>
	<path class="st24" d="M27.45,16.668h2.2l-1.1,1.2C28.55,17.768,27.45,16.668,27.45,16.668z"/>
	<ellipse class="st22" cx="28.55" cy="17.568" rx="0.6" ry="0.5"/>
	<path class="st25" d="M26.35,21.468h3c0.1,0,0.2,0.1,0.2,0.1v0.5c0,0.1-0.1,0.1-0.2,0.1h-3c-0.1,0-0.2-0.1-0.2-0.1v-0.5
		C26.15,21.468,26.25,21.468,26.35,21.468z"/>
	<path class="st8" d="M30.55,20.768c-0.4,0-0.7,0.3-0.7,0.7v0.6c0,0.4,0.3,0.7,0.7,0.7c0.4,0,0.7-0.3,0.7-0.7v-0.6
		C31.35,21.068,30.95,20.768,30.55,20.768z M30.55,21.068c-0.2,0-0.4,0.2-0.4,0.5v0.3c0,0.3,0.2,0.5,0.4,0.5c0.2,0,0.4-0.2,0.4-0.5
		v-0.3C31.05,21.268,30.85,21.068,30.55,21.068z"/>
	<path class="st8" d="M26.75,20.968c-0.2,0-0.4,0.2-0.4,0.5v0.6c0,0.3,0.2,0.5,0.4,0.5s0.4-0.2,0.4-0.5v-0.6
		C27.25,21.168,27.05,20.968,26.75,20.968z M26.75,20.668c-0.4,0-0.7,0.3-0.7,0.7v0.9c0,0.4,0.3,0.7,0.7,0.7c0.4,0,0.7-0.3,0.7-0.7
		v-0.9C27.45,20.968,27.15,20.668,26.75,20.668z"/>
	<path class="st8" d="M25.55,21.168c-0.2,0-0.4,0.2-0.4,0.5v0.1c0,0.3,0.2,0.5,0.4,0.5s0.4-0.2,0.4-0.5v-0.1
		C26.05,21.468,25.85,21.168,25.55,21.168z M25.55,20.968c-0.4,0-0.7,0.3-0.7,0.7v0.4c0,0.4,0.3,0.7,0.7,0.7c0.4,0,0.7-0.3,0.7-0.7
		v-0.4C26.35,21.268,26.05,20.968,25.55,20.968z"/>
	<path class="st8" d="M23.85,20.868c-0.4,0-0.8,0.3-0.8,0.6v0.7c0,0.3,0.4,0.6,0.8,0.6s0.8-0.3,0.8-0.6v-0.7
		C24.65,21.068,24.25,20.868,23.85,20.868z M23.85,20.568c-0.7,0-1.3,0.3-1.3,0.8v1c0,0.4,0.6,0.8,1.3,0.8s1.3-0.3,1.3-0.8v-1
		C25.15,20.868,24.55,20.568,23.85,20.568z"/>
	<path class="st8" d="M33.35,20.968c-0.4,0-0.8,0.3-0.8,0.6v0.7c0,0.3,0.4,0.6,0.8,0.6c0.4,0,0.8-0.3,0.8-0.6v-0.7
		C34.15,21.268,33.75,20.968,33.35,20.968z M33.35,20.668c-0.7,0-1.3,0.3-1.3,0.8v1c0,0.4,0.6,0.8,1.3,0.8s1.3-0.3,1.3-0.8v-1
		C34.65,20.968,34.05,20.668,33.35,20.668z"/>
	<path class="st25" d="M30.95,21.468h1.6c0.1,0,0.1,0.1,0.1,0.1v0.5c0,0.1,0,0.1-0.1,0.1h-1.6c-0.1,0-0.1-0.1-0.1-0.1v-0.5
		C30.85,21.468,30.95,21.468,30.95,21.468z"/>
	<path class="st25" d="M29.35,21.368h0.9c0,0,0.1,0.1,0.1,0.2v0.7c0,0.1,0,0.2-0.1,0.2h-0.9c0,0-0.1-0.1-0.1-0.2v-0.7
		C29.25,21.368,29.25,21.368,29.35,21.368z"/>
	<path class="st25" d="M24.45,21.368h0.9c0,0,0.1,0.1,0.1,0.2v0.7c0,0.1,0,0.2-0.1,0.2h-0.9c0,0-0.1-0.1-0.1-0.2v-0.7
		C24.45,21.368,24.45,21.368,24.45,21.368z"/>
	<path class="st25" d="M21.35,21.168h1.8c0.1,0,0.1,0.1,0.1,0.2v0.9c0,0.1,0,0.2-0.1,0.2h-1.8c-0.1,0-0.1-0.1-0.1-0.2v-0.8
		C21.25,21.268,21.25,21.168,21.35,21.168z"/>
	<path class="st25" d="M34.05,21.368h1.7c0.1,0,0.1,0.1,0.1,0.2v0.8c0,0.1,0,0.2-0.1,0.2h-1.7c-0.1,0-0.1-0.1-0.1-0.2v-0.8
		C33.95,21.468,33.95,21.368,34.05,21.368z"/>
</g>
</svg>
