<svg id="Layer_1" data-name="Layer 1" xmlns="http://www.w3.org/2000/svg" viewBox="0 0 110 110"><defs><style>.cls-1{fill:#6abf4b;}</style></defs><path class="cls-1" d="M52.4,45.9a7.55,7.55,0,1,1-7.6-7.5A7.58,7.58,0,0,1,52.4,45.9Z"/><path class="cls-1" d="M72.3,45.9a7.55,7.55,0,1,1-7.6-7.5A7.58,7.58,0,0,1,72.3,45.9Z"/><path class="cls-1" d="M61.5,28.2A7.55,7.55,0,1,1,54,20.6a7.58,7.58,0,0,1,7.5,7.6Z"/><path class="cls-1" d="M54.6,75.9A25.27,25.27,0,0,1,29.3,50.6h-13a38.2,38.2,0,1,0,76.4,1V50.5h-13A25.24,25.24,0,0,1,54.6,75.9Z"/></svg>