<?xml version="1.0" encoding="utf-8"?>
<!-- Generator: Adobe Illustrator 24.1.2, SVG Export Plug-In . SVG Version: 6.00 Build 0)  -->
<svg version="1.1" id="Layer_1" xmlns="http://www.w3.org/2000/svg" xmlns:xlink="http://www.w3.org/1999/xlink" x="0px" y="0px"
	 width="60px" height="60px" viewBox="0 0 60 60" style="enable-background:new 0 0 60 60;" xml:space="preserve">
<style type="text/css">
	.st0{fill:#C7C4C5;}
</style>
<path class="st0" d="M47.976,25.306c0-4.357-3.532-7.889-7.889-7.889H19.913c-4.357,0-7.889,3.532-7.889,7.889v9.388
	c0,4.357,3.532,7.889,7.889,7.889h20.173c4.357,0,7.889-3.532,7.889-7.889v-9.388H47.976z M36.112,30.704l-9.046,4.476
	c-0.355,0.192-1.56-0.065-1.56-0.468v-9.187c0-0.409,1.215-0.665,1.57-0.463l8.66,4.711C36.098,29.979,36.479,30.505,36.112,30.704z
	"/>
</svg>
